<svg width="227" height="268" viewBox="0 0 227 268" fill="none" xmlns="http://www.w3.org/2000/svg">
<path d="M88.4559 5.33145L35.0389 74.7303L178.696 39.018L98.6803 2.76694C96.9371 1.97576 94.9773 1.79858 93.1204 2.26432C91.2636 2.73005 89.6194 3.81121 88.4559 5.33145Z" fill="#EBEBEB"/>
<path d="M34.2814 75.2242L88.2203 5.15749C89.4231 3.58195 91.1266 2.46289 93.0502 1.98453C94.9739 1.50617 97.003 1.69701 98.8038 2.52564L179.611 39.1302L34.2814 75.2242ZM95.1674 2.27311C93.9127 2.27396 92.6751 2.56519 91.5517 3.124C90.4282 3.6828 89.4493 4.49403 88.6916 5.49419L35.7909 74.2421L177.799 38.9394L98.5625 3.02507C97.4955 2.54405 96.3378 2.29721 95.1674 2.30117V2.27311Z" fill="#E0E0E0"/>
<path d="M35.0352 74.7328L179.198 38.8958L198.621 117.028C199.005 118.575 198.76 120.211 197.938 121.577C197.116 122.942 195.785 123.926 194.238 124.31L61.7401 157.247C60.1933 157.632 58.557 157.386 57.1913 156.564C55.8255 155.742 54.8423 154.412 54.4577 152.865L35.0352 74.7328Z" fill="#F0F0F0"/>
<path d="M170.324 43.1762L120.38 94.2027L44.893 77.2107L36.2567 37.1718C35.7787 35.1065 36.1315 32.9361 37.239 31.1284C38.3464 29.3208 40.1198 28.0208 42.1769 27.5086L151.379 0.365188C152.409 0.108362 153.479 0.0570991 154.528 0.214334C155.577 0.371568 156.585 0.734213 157.494 1.28151C158.403 1.82881 159.196 2.55001 159.826 3.40384C160.456 4.25766 160.911 5.22735 161.166 6.25739L170.324 43.1762Z" fill="white"/>
<path d="M113.523 90.1903L54.2139 152.165C54.4233 153.008 54.7967 153.801 55.3128 154.5C55.8289 155.198 56.4776 155.788 57.2218 156.236C57.966 156.683 58.7911 156.98 59.6499 157.109C60.5088 157.237 61.3846 157.195 62.2273 156.985L193.707 124.298C195.408 123.875 196.872 122.794 197.776 121.292C198.68 119.79 198.95 117.991 198.528 116.29L198.404 115.796L120.852 88.4395C119.591 87.994 118.229 87.9223 116.929 88.2329C115.629 88.5435 114.446 89.2233 113.523 90.1903Z" fill="#E0E0E0"/>
<path d="M94.5746 33.4196L51.8535 44.0474L52.9386 48.4094L95.6597 37.7816L94.5746 33.4196Z" fill="#E0E0E0"/>
<path d="M149.39 31.5262L54.6036 55.1065L55.8297 60.0348L150.616 36.4545L149.39 31.5262Z" fill="#E0E0E0"/>
<path d="M152.389 43.5666L57.6018 67.1469L58.8278 72.0752L153.615 48.4949L152.389 43.5666Z" fill="#E0E0E0"/>
<path d="M154.381 59.5228L151.413 62.4914L71.8399 83.2937L61.4416 80.8638L61.0488 79.7359L155.532 56.2344L155.941 57.8674L154.381 59.5228Z" fill="#E0E0E0"/>
<path d="M134.028 80.2578L98.1809 89.169L87.2214 86.6662L140.795 73.3386L134.028 80.2578Z" fill="#E0E0E0"/>
<path d="M111.357 92.4462C111.357 92.4462 111.318 92.5079 111.222 92.6146L110.796 93.0803L109.146 94.848L103.035 101.318C97.861 106.767 90.6894 114.298 82.7489 122.553C74.8085 130.807 67.5134 138.215 62.1936 143.523C59.5337 146.177 57.3676 148.321 55.8637 149.786L54.1297 151.469L53.6695 151.901C53.6215 151.955 53.5668 152.002 53.5068 152.042C53.5482 151.983 53.5952 151.929 53.6471 151.879L54.0848 151.424L55.7683 149.702L62.0364 143.377C67.317 138.029 74.5728 130.605 82.5301 122.345C90.4873 114.085 97.6814 106.632 102.872 101.172L109.045 94.7694L110.728 93.0411L111.177 92.5977C111.301 92.4911 111.357 92.4462 111.357 92.4462Z" fill="#FAFAFA"/>
<path d="M198.404 115.785C198.376 115.863 181.839 110.123 161.469 102.962C141.099 95.802 124.606 89.9322 124.634 89.8536C124.662 89.7751 141.2 95.5102 161.57 102.671C181.94 109.831 198.432 115.701 198.404 115.785Z" fill="#FAFAFA"/>
<path d="M172.698 40.7183C172.667 40.7683 172.631 40.8153 172.591 40.8586L172.277 41.2458L170.947 42.7217L165.992 48.1032C161.794 52.6318 155.947 58.8382 149.393 65.6115C142.838 72.3847 136.789 78.4284 132.401 82.7718L127.176 87.8896L125.74 89.2644L125.364 89.618C125.274 89.6965 125.229 89.7358 125.223 89.7302C125.259 89.6822 125.298 89.6372 125.341 89.5955L125.695 89.2195L127.092 87.8054L132.243 82.6203C136.598 78.2376 142.586 72.1658 149.14 65.3982C155.694 58.6306 161.564 52.4691 165.806 47.9798L170.829 42.6656L172.204 41.229L172.568 40.8586C172.606 40.8067 172.649 40.7596 172.698 40.7183Z" fill="#FAFAFA"/>
<path d="M111.357 92.4462C111.29 92.4425 111.225 92.4312 111.161 92.4125L110.599 92.2779L108.355 91.7167C106.436 91.2341 103.647 90.5551 100.195 89.747C93.2988 88.114 83.7309 86.0097 73.1587 83.7201C62.5864 81.4306 53.0242 79.2926 46.1387 77.6035C42.6932 76.7617 39.9098 76.0547 37.9963 75.5384L35.7909 74.938L35.2297 74.7752C35.1635 74.7612 35.0993 74.7386 35.0389 74.7079L35.2353 74.7472L35.7965 74.8762L38.0412 75.4374C39.9659 75.92 42.7549 76.5934 46.2061 77.4071C53.1027 79.0401 62.6649 81.1444 73.2428 83.4339C83.8207 85.7235 93.3773 87.8615 100.263 89.5506C103.708 90.3924 106.492 91.0938 108.405 91.6157L110.605 92.2161L111.166 92.3789L111.357 92.4462Z" fill="#FAFAFA"/>
<path d="M170.324 43.1762C170.324 43.1762 170.268 42.991 170.172 42.615L169.763 41.027C169.404 39.6184 168.882 37.559 168.208 34.9047L162.557 12.3909C162.258 11.2012 161.953 9.98348 161.643 8.7377C161.491 8.12043 161.334 7.48631 161.171 6.8522C161.093 6.53234 161.014 6.21247 160.913 5.90383C160.825 5.58873 160.713 5.28101 160.576 4.98353C160.02 3.7246 159.145 2.6324 158.038 1.81465C156.931 0.9969 155.63 0.481843 154.263 0.320276C153.554 0.22214 152.835 0.22214 152.125 0.320276C151.418 0.443731 150.7 0.640139 149.976 0.814099L145.571 1.93642L136.362 4.20913L95.448 14.4223L54.4832 24.5905L45.2858 26.8688L43.0411 27.43C42.3125 27.5814 41.5989 27.7973 40.9087 28.0753C39.5774 28.6524 38.4288 29.5818 37.5866 30.7633C37.1791 31.3375 36.8471 31.9618 36.599 32.6208C36.3676 33.2717 36.215 33.9481 36.1444 34.6353C35.9817 36.0102 36.3633 37.3345 36.6326 38.642C37.1938 41.2608 37.7306 43.7692 38.2432 46.1672C40.2914 55.7575 41.9468 63.5127 43.0916 68.883C43.6528 71.5654 44.0961 73.6417 44.3991 75.0558C44.5394 75.7573 44.6516 76.296 44.7302 76.6663C44.8088 77.0367 44.8312 77.2275 44.8312 77.2275C44.8312 77.2275 44.7807 77.0423 44.6965 76.6663C44.6124 76.2904 44.4945 75.7629 44.3374 75.067C44.0231 73.6473 43.5686 71.571 42.9794 68.8943C41.8065 63.5296 40.1175 55.7743 38.0299 46.2009C37.5137 43.8047 36.9637 41.2963 36.397 38.6757C36.1276 37.385 35.7348 36.0158 35.9031 34.596C35.9676 33.8854 36.1223 33.1858 36.3633 32.5141C36.6197 31.8342 36.9609 31.1893 37.379 30.595C37.8041 29.99 38.3123 29.4478 38.8885 28.9844C39.4655 28.5034 40.1103 28.1101 40.8021 27.8172C41.5042 27.5306 42.2312 27.309 42.9738 27.155L45.2184 26.5939L54.4327 24.3156L95.3975 14.1249L136.362 3.95661L145.56 1.67829L149.965 0.589633C150.689 0.410061 151.396 0.219267 152.137 0.0901995C153.218 -0.0713674 154.321 -0.015625 155.381 0.254166C156.441 0.523956 157.437 1.00238 158.309 1.66145C159.42 2.5021 160.297 3.61288 160.857 4.88813C160.998 5.1946 161.114 5.51171 161.205 5.8365C161.306 6.15636 161.385 6.47622 161.463 6.79608C161.62 7.4302 161.772 8.06431 161.929 8.6872C162.238 9.93298 162.535 11.1507 162.832 12.3404L168.388 34.8935C169.033 37.5534 169.538 39.6184 169.881 41.027C170.049 41.7284 170.178 42.2615 170.262 42.6263C170.346 42.991 170.324 43.1762 170.324 43.1762Z" fill="#E0E0E0"/>
<path d="M226.709 219.134C226.709 219.218 175.958 219.286 113.355 219.286C50.7515 219.286 0 219.224 0 219.134C0 219.044 50.7459 218.977 113.355 218.977C175.964 218.977 226.709 219.056 226.709 219.134Z" fill="#263238"/>
<path d="M107.58 13.5581L102.03 17.7836L102.3 25.8531L97.2213 21.8184L94.4155 24.2202L83.7534 11.0553L107.58 13.5581Z" fill="#781596"/>
<path d="M99.943 19.5008C99.943 19.7477 102.3 25.8531 102.3 25.8531L97.2213 21.8184L99.943 19.5008Z" fill="#781596"/>
<g opacity="0.3">
<path d="M99.943 19.5008C99.943 19.7477 102.3 25.8531 102.3 25.8531L97.2213 21.8184L99.943 19.5008Z" fill="black"/>
</g>
<path d="M83.7534 11.0553L99.9429 19.5008L102.3 25.8531L102.03 17.7836L83.7534 11.0553Z" fill="#781596"/>
<path opacity="0.1" d="M83.7534 11.0553L99.9429 19.5008L102.3 25.8531L102.03 17.7836L83.7534 11.0553Z" fill="black"/>
<path d="M128.646 119.932C127.649 119.899 126.669 119.66 125.768 119.23C126.765 119.263 127.745 119.502 128.646 119.932Z" fill="#263238"/>
<path d="M133.237 121.054C133.237 121.138 132.816 121.11 132.344 120.998C131.873 120.886 131.503 120.718 131.519 120.633C131.536 120.549 131.94 120.577 132.417 120.695C132.894 120.813 133.259 120.97 133.237 121.054Z" fill="#263238"/>
<path d="M114.292 24.7982C113.794 24.8054 113.299 24.7276 112.827 24.5681C112.333 24.5074 111.854 24.3572 111.413 24.1248C111.913 24.0591 112.422 24.109 112.9 24.2707C113.4 24.3319 113.877 24.5129 114.292 24.7982Z" fill="#263238"/>
<path d="M119.724 27.127C118.782 26.818 117.892 26.3718 117.081 25.8026C117.582 25.8502 118.064 26.0156 118.489 26.2852C119.224 26.6556 119.769 27.054 119.724 27.127Z" fill="#263238"/>
<path d="M124.432 30.696C124.37 30.7577 123.871 30.3368 123.242 29.8093C122.614 29.2818 122.12 28.8329 122.193 28.7599C122.672 28.929 123.104 29.2077 123.456 29.5736C124.067 30.1123 124.494 30.6398 124.432 30.696Z" fill="#263238"/>
<path d="M128.024 35.3817C127.945 35.421 127.575 34.8766 127.126 34.2032C126.811 33.8173 126.565 33.3809 126.396 32.9126C126.458 32.8621 126.929 33.3447 127.384 34.0349C127.7 34.4269 127.92 34.8885 128.024 35.3817Z" fill="#263238"/>
<path d="M130.061 40.9203C129.82 40.4852 129.653 40.013 129.567 39.523C129.379 39.0605 129.275 38.5685 129.258 38.0696C129.561 38.4736 129.767 38.9422 129.859 39.4389C130.047 39.9084 130.117 40.4174 130.061 40.9203Z" fill="#263238"/>
<path d="M130.363 46.8126C130.263 46.3253 130.243 45.825 130.302 45.3311C130.259 44.835 130.305 44.3354 130.436 43.8552C130.608 44.3291 130.667 44.8361 130.61 45.3367C130.646 45.8412 130.561 46.347 130.363 46.8126Z" fill="#263238"/>
<path d="M128.832 52.5027C128.892 52.0101 129.032 51.5305 129.247 51.083C129.361 50.6018 129.551 50.1416 129.808 49.7194C129.835 50.2249 129.733 50.7291 129.511 51.184C129.396 51.6728 129.163 52.1258 128.832 52.5027Z" fill="#263238"/>
<path d="M125.403 57.295C125.347 57.2277 125.784 56.7339 126.318 56.1278C126.851 55.5218 127.277 55.0055 127.35 55.0672C127.191 55.5478 126.915 55.9816 126.548 56.3298C126.003 56.9583 125.459 57.3568 125.403 57.295Z" fill="#263238"/>
<path d="M120.453 60.4825C120.833 60.1618 121.261 59.9041 121.722 59.7193C122.136 59.4445 122.593 59.2397 123.074 59.1132C122.748 59.5015 122.332 59.804 121.862 59.9942C121.44 60.2707 120.956 60.4384 120.453 60.4825Z" fill="#263238"/>
<path d="M114.696 61.7226C115.165 61.55 115.66 61.457 116.16 61.4476C116.646 61.3361 117.146 61.3039 117.642 61.3522C117.201 61.6019 116.706 61.7388 116.2 61.7506C115.704 61.8693 115.187 61.8596 114.696 61.7226Z" fill="#263238"/>
<path d="M108.916 60.6284C109.875 60.8282 110.815 61.1156 111.722 61.4869C111.219 61.5497 110.708 61.48 110.24 61.2849C109.749 61.1861 109.292 60.9596 108.916 60.6284Z" fill="#263238"/>
<path d="M104.819 56.5655C104.904 56.5375 105.162 57.1267 105.622 57.7889C106.082 58.451 106.525 58.9112 106.464 58.9954C106.402 59.0795 105.852 58.6587 105.369 57.9684C105.03 57.5781 104.836 57.0826 104.819 56.5655Z" fill="#263238"/>
<path d="M107.311 51.9696C107.311 52.0594 106.699 52.2558 106.06 52.7104C105.42 53.1649 105.078 53.7317 104.999 53.6868C104.92 53.6419 105.167 52.9685 105.88 52.4634C106.277 52.1227 106.789 51.946 107.311 51.9696Z" fill="#263238"/>
<path d="M112.384 54.0739C112.305 54.1188 111.946 53.5689 111.363 53.0302C110.779 52.4915 110.184 52.2221 110.24 52.1379C110.762 52.179 111.247 52.4179 111.598 52.8057C112.001 53.1228 112.28 53.5719 112.384 54.0739Z" fill="#263238"/>
<path d="M112.575 59.8034C112.616 59.3145 112.709 58.8312 112.85 58.3613C112.892 57.8705 112.984 57.3854 113.125 56.9135C113.275 57.4034 113.275 57.9274 113.125 58.4174C113.086 58.9245 112.894 59.4078 112.575 59.8034Z" fill="#263238"/>
<path d="M108.731 64.2085C108.68 64.1356 109.191 63.7147 109.803 63.1928C110.414 62.6709 110.925 62.222 110.964 62.2781C111.003 62.3342 110.639 62.8842 110.005 63.4005C109.37 63.9167 108.776 64.2815 108.731 64.2085Z" fill="#263238"/>
<path d="M103.484 66.9358C103.855 66.5999 104.29 66.3422 104.763 66.1782C105.195 65.9237 105.674 65.7613 106.172 65.7012C105.372 66.2953 104.456 66.7158 103.484 66.9358Z" fill="#263238"/>
<path d="M98.2033 69.6181C98.1584 69.5452 98.6915 69.1468 99.3986 68.7203C99.8111 68.4325 100.283 68.2407 100.779 68.1591C100.824 68.2433 100.252 68.5856 99.5501 68.9896C99.1494 69.2899 98.6908 69.5039 98.2033 69.6181Z" fill="#263238"/>
<path d="M93.714 73.4789C93.6523 73.4228 94.0395 72.8729 94.6287 72.2949C94.9537 71.91 95.3626 71.6048 95.824 71.4026C95.8801 71.47 95.4256 71.9638 94.8476 72.525C94.2696 73.0861 93.8038 73.5351 93.714 73.4789Z" fill="#263238"/>
<path d="M90.347 78.3162C90.4411 77.821 90.6486 77.3542 90.9531 76.9526C91.3852 76.2511 91.8285 75.7461 91.8958 75.7966C91.7503 76.2732 91.5203 76.7199 91.2168 77.1153C90.7904 77.8055 90.4256 78.3555 90.347 78.3162Z" fill="#263238"/>
<path d="M88.1922 83.8156C88.1636 83.3128 88.256 82.8106 88.4616 82.3509C88.5672 81.8573 88.7884 81.3958 89.1069 81.0042C88.9426 81.9796 88.6344 82.9251 88.1922 83.81V83.8156Z" fill="#263238"/>
<path d="M87.4178 89.6741C87.2143 88.6902 87.2841 87.6693 87.6198 86.7224C87.7052 87.2125 87.7052 87.7137 87.6198 88.2038C87.6393 88.702 87.5709 89.1996 87.4178 89.6741Z" fill="#263238"/>
<path d="M88.1922 95.527C87.9403 95.0931 87.7817 94.6115 87.7264 94.1129C87.5615 93.6353 87.5191 93.124 87.603 92.6258C87.8203 93.0751 87.9643 93.5563 88.0295 94.0511C88.185 94.5266 88.2404 95.0291 88.1922 95.527Z" fill="#263238"/>
<path d="M90.4761 100.97C90.4032 101.015 90.0048 100.476 89.64 99.7357C89.3694 99.3097 89.2057 98.8245 89.163 98.3216C89.4863 98.701 89.7408 99.134 89.915 99.601C90.181 100.021 90.371 100.484 90.4761 100.97Z" fill="#263238"/>
<path d="M94.0227 105.701C93.9666 105.757 93.4615 105.33 92.9004 104.702C92.539 104.35 92.2627 103.92 92.0923 103.445C92.1652 103.389 92.6086 103.883 93.136 104.5C93.6635 105.117 94.0844 105.639 94.0227 105.701Z" fill="#263238"/>
<path d="M98.5793 109.461C98.0916 109.33 97.6417 109.086 97.2662 108.748C96.604 108.265 96.1439 107.783 96.1887 107.715C96.6521 107.902 97.0793 108.168 97.4514 108.501C98.1023 108.978 98.6242 109.388 98.5793 109.461Z" fill="#263238"/>
<path d="M103.91 112.008C103.405 112.005 102.909 111.88 102.463 111.644C101.976 111.508 101.531 111.253 101.166 110.903C101.658 110.975 102.134 111.129 102.575 111.357C103.052 111.502 103.503 111.722 103.91 112.008Z" fill="#263238"/>
<path d="M106.879 112.766C106.879 112.844 106.828 112.912 106.8 112.906C106.772 112.901 106.761 112.828 106.8 112.743C106.84 112.659 106.851 112.598 106.879 112.603C106.907 112.609 106.896 112.682 106.879 112.766Z" fill="#263238"/>
<path d="M102.588 98.0702L96.4518 96.055L95.1982 99.8723L101.335 101.888L102.588 98.0702Z" fill="#781596"/>
<g opacity="0.3">
<path d="M102.588 98.0702L96.4518 96.055L95.1982 99.8723L101.335 101.888L102.588 98.0702Z" fill="black"/>
</g>
<path d="M102.575 98.0803C101.427 98.6556 100.238 99.1434 99.017 99.5393L98.9104 99.5786L98.8431 99.4888L98.7364 99.3541C97.885 98.3189 97.1175 97.2174 96.4413 96.0601C97.3663 97.0304 98.2161 98.0697 98.9833 99.169L99.0844 99.3036L98.9104 99.2531C100.098 98.7643 101.324 98.3721 102.575 98.0803Z" fill="#781596"/>
<g opacity="0.1">
<path d="M102.575 98.0803C101.427 98.6556 100.238 99.1434 99.017 99.5393L98.9104 99.5786L98.8431 99.4888L98.7364 99.3541C97.885 98.3189 97.1175 97.2174 96.4413 96.0601C97.3663 97.0304 98.2161 98.0697 98.9833 99.169L99.0844 99.3036L98.9104 99.2531C100.098 98.7643 101.324 98.3721 102.575 98.0803Z" fill="black"/>
</g>
<path d="M98.2033 98.4001C97.7809 98.7801 97.292 99.0788 96.7611 99.2812C96.2722 99.571 95.7368 99.7741 95.1786 99.8816C95.6048 99.5039 96.0951 99.2055 96.6264 99.0006C97.1141 98.7122 97.6473 98.5091 98.2033 98.4001Z" fill="#781596"/>
<g opacity="0.1">
<path d="M98.2033 98.4001C97.7809 98.7801 97.292 99.0788 96.7611 99.2812C96.2722 99.571 95.7368 99.7741 95.1786 99.8816C95.6048 99.5039 96.0951 99.2055 96.6264 99.0006C97.1141 98.7122 97.6473 98.5091 98.2033 98.4001Z" fill="black"/>
</g>
<path d="M101.43 101.93C101.087 101.507 100.821 101.026 100.644 100.51C100.274 99.674 100.027 98.9557 100.139 98.9669C100.484 99.3905 100.751 99.871 100.931 100.387C101.192 100.865 101.361 101.389 101.43 101.93Z" fill="#781596"/>
<g opacity="0.1">
<path d="M101.43 101.93C101.087 101.507 100.821 101.026 100.644 100.51C100.274 99.674 100.027 98.9557 100.139 98.9669C100.484 99.3905 100.751 99.871 100.931 100.387C101.192 100.865 101.361 101.389 101.43 101.93Z" fill="black"/>
</g>
<path d="M127.612 113.024L111.83 107.841L108.605 117.662L124.387 122.845L127.612 113.024Z" fill="#781596"/>
<path d="M127.597 113.035C127.372 113.164 127.135 113.271 126.89 113.355L124.926 114.124C123.242 114.758 120.947 115.622 118.36 116.571L118.254 116.61L118.186 116.52L117.923 116.172C116.205 113.927 114.657 111.834 113.551 110.325L112.232 108.535C112.064 108.32 111.916 108.091 111.789 107.85C111.995 108.036 112.183 108.241 112.35 108.462L113.725 110.196C114.875 111.666 116.447 113.714 118.169 115.987L118.433 116.329L118.259 116.279C120.841 115.336 123.169 114.505 124.853 113.922L126.851 113.243C127.092 113.15 127.342 113.081 127.597 113.035Z" fill="#781596"/>
<g opacity="0.2">
<path d="M127.597 113.035C127.372 113.164 127.135 113.271 126.89 113.355L124.926 114.124C123.242 114.758 120.947 115.622 118.36 116.571L118.254 116.61L118.186 116.52L117.923 116.172C116.205 113.927 114.657 111.834 113.551 110.325L112.232 108.535C112.064 108.32 111.916 108.091 111.789 107.85C111.995 108.036 112.183 108.241 112.35 108.462L113.725 110.196C114.875 111.666 116.447 113.714 118.169 115.987L118.433 116.329L118.259 116.279C120.841 115.336 123.169 114.505 124.853 113.922L126.851 113.243C127.092 113.15 127.342 113.081 127.597 113.035Z" fill="black"/>
</g>
<path d="M116.374 113.871C115.147 114.638 113.868 115.319 112.547 115.908C111.27 116.586 109.948 117.174 108.59 117.67C109.813 116.897 111.09 116.214 112.412 115.628C113.688 114.946 115.012 114.359 116.374 113.871Z" fill="#781596"/>
<g opacity="0.2">
<path d="M116.374 113.871C115.147 114.638 113.868 115.319 112.547 115.908C111.27 116.586 109.948 117.174 108.59 117.67C109.813 116.897 111.09 116.214 112.412 115.628C113.688 114.946 115.012 114.359 116.374 113.871Z" fill="black"/>
</g>
<path d="M124.656 122.945C123.966 121.741 123.364 120.488 122.855 119.197C122.256 117.943 121.749 116.647 121.34 115.319C122.031 116.525 122.633 117.78 123.141 119.073C123.741 120.325 124.248 121.619 124.656 122.945Z" fill="#781596"/>
<g opacity="0.2">
<path d="M124.656 122.945C123.966 121.741 123.364 120.488 122.855 119.197C122.256 117.943 121.749 116.647 121.34 115.319C122.031 116.525 122.633 117.78 123.141 119.073C123.741 120.325 124.248 121.619 124.656 122.945Z" fill="black"/>
</g>
<path d="M112.681 110.269C112.289 110.557 111.819 110.722 111.332 110.744C110.846 110.765 110.364 110.642 109.947 110.389C109.531 110.137 109.198 109.766 108.992 109.325C108.786 108.884 108.715 108.391 108.789 107.91C108.863 107.428 109.077 106.979 109.406 106.62C109.735 106.26 110.163 106.006 110.636 105.89C111.109 105.774 111.606 105.8 112.064 105.967C112.522 106.133 112.92 106.431 113.209 106.823C113.401 107.084 113.539 107.38 113.616 107.694C113.694 108.009 113.708 108.335 113.659 108.655C113.61 108.975 113.499 109.282 113.331 109.559C113.163 109.836 112.942 110.077 112.681 110.269Z" fill="#263238"/>
<path d="M112.794 107.828C112.272 108.215 111.718 108.557 111.138 108.849L110.745 109.068L110.672 109.107L110.633 109.04C110.367 108.619 110.142 108.173 109.96 107.71C110.272 108.098 110.545 108.518 110.773 108.961L110.667 108.928L111.06 108.703C111.611 108.361 112.191 108.068 112.794 107.828Z" fill="white"/>
<path d="M117.475 99.7919L109.206 97.0764L107.516 102.221L115.785 104.937L117.475 99.7919Z" fill="#781596"/>
<g opacity="0.2">
<path d="M117.475 99.7919L109.206 97.0764L107.516 102.221L115.785 104.937L117.475 99.7919Z" fill="black"/>
</g>
<path d="M117.457 99.7974C117.342 99.8665 117.219 99.9229 117.092 99.9658L116.059 100.37C115.19 100.701 113.978 101.155 112.62 101.649H112.563L112.53 101.599L112.395 101.419C111.492 100.23 110.712 99.1465 110.1 98.3553L109.427 97.4406C109.34 97.3277 109.263 97.2075 109.196 97.0814C109.3 97.1784 109.394 97.2855 109.477 97.4013L110.201 98.3104C110.801 99.0792 111.626 100.151 112.524 101.341L112.664 101.526H112.575C113.927 101.032 115.145 100.594 116.031 100.291L117.075 99.9377C117.197 99.8768 117.325 99.8297 117.457 99.7974Z" fill="#781596"/>
<g opacity="0.2">
<path d="M117.457 99.7974C117.342 99.8665 117.219 99.9229 117.092 99.9658L116.059 100.37C115.19 100.701 113.978 101.155 112.62 101.649H112.563L112.53 101.599L112.395 101.419C111.492 100.23 110.712 99.1465 110.1 98.3553L109.427 97.4406C109.34 97.3277 109.263 97.2075 109.196 97.0814C109.3 97.1784 109.394 97.2855 109.477 97.4013L110.201 98.3104C110.801 99.0792 111.626 100.151 112.524 101.341L112.664 101.526H112.575C113.927 101.032 115.145 100.594 116.031 100.291L117.075 99.9377C117.197 99.8768 117.325 99.8297 117.457 99.7974Z" fill="#781596"/>
</g>
<path d="M111.581 100.235C110.938 100.635 110.269 100.991 109.578 101.301C108.908 101.657 108.214 101.966 107.502 102.227C108.142 101.821 108.812 101.463 109.505 101.155C110.174 100.799 110.868 100.492 111.581 100.235Z" fill="#781596"/>
<g opacity="0.2">
<path d="M111.581 100.235C110.938 100.635 110.269 100.991 109.578 101.301C108.908 101.657 108.214 101.966 107.502 102.227C108.142 101.821 108.812 101.463 109.505 101.155C110.174 100.799 110.868 100.492 111.581 100.235Z" fill="#781596"/>
</g>
<path d="M115.919 104.988C115.557 104.358 115.242 103.701 114.976 103.024C114.665 102.366 114.398 101.687 114.18 100.993C114.86 102.278 115.442 103.614 115.919 104.988Z" fill="#781596"/>
<g opacity="0.2">
<path d="M115.919 104.988C115.557 104.358 115.242 103.701 114.976 103.024C114.665 102.366 114.398 101.687 114.18 100.993C114.86 102.278 115.442 103.614 115.919 104.988Z" fill="#781596"/>
</g>
<path d="M51.0657 35.3929C50.4951 37.6388 49.2713 39.6651 47.5491 41.2156C45.8269 42.766 43.6836 43.771 41.3903 44.1034C39.097 44.4358 36.7566 44.0808 34.665 43.0831C32.5735 42.0854 30.8247 40.49 29.6399 38.4985C28.455 36.507 27.8873 34.2089 28.0085 31.8948C28.1296 29.5807 28.9343 27.3545 30.3206 25.4976C31.707 23.6408 33.6128 22.2367 35.7971 21.4629C37.9814 20.6892 40.3461 20.5805 42.5922 21.1506C45.6039 21.9166 48.1882 23.8471 49.7771 26.5177C51.3661 29.1884 51.8295 32.3806 51.0657 35.3929Z" fill="#263238"/>
<path d="M44.0344 26.1561C44.242 26.2403 42.912 30.1628 41.0602 34.9215C40.7852 35.6117 40.499 36.2739 40.269 36.9248L40.1287 37.2784L39.7751 37.1437C35.9761 35.6791 33.1983 34.4726 33.2657 34.2986C33.333 34.1246 36.2174 35.0337 40.0445 36.4198L39.5507 36.6443C39.7976 35.9933 40.0557 35.3255 40.3195 34.6353C42.1657 29.871 43.8323 26.0944 44.0344 26.1561Z" fill="white"/>
<path d="M195.088 201.227C197.187 200.241 199.547 199.954 201.822 200.408C203.045 200.61 204.319 200.969 205.155 201.89C205.991 202.81 206.143 204.426 205.189 205.217C204.571 205.631 203.83 205.819 203.09 205.75C201.306 205.75 199.33 205.414 197.905 206.486C197.091 207.097 196.553 208.113 195.582 208.416C195.096 208.527 194.588 208.477 194.132 208.275C193.677 208.073 193.3 207.728 193.056 207.294C192.594 206.401 192.492 205.364 192.77 204.398C192.885 203.726 193.155 203.091 193.557 202.541C193.959 201.99 194.483 201.541 195.088 201.227Z" fill="#781596"/>
<g opacity="0.2">
<path d="M195.088 201.227C197.187 200.241 199.547 199.954 201.822 200.408C203.045 200.61 204.319 200.969 205.155 201.89C205.991 202.81 206.143 204.426 205.189 205.217C204.571 205.631 203.83 205.819 203.09 205.75C201.306 205.75 199.33 205.414 197.905 206.486C197.091 207.097 196.553 208.113 195.582 208.416C195.096 208.527 194.588 208.477 194.132 208.275C193.677 208.073 193.3 207.728 193.056 207.294C192.594 206.401 192.492 205.364 192.77 204.398C192.885 203.726 193.155 203.091 193.557 202.541C193.959 201.99 194.483 201.541 195.088 201.227Z" fill="white"/>
</g>
<path d="M190.391 192.159C191.648 193.949 194.083 193.354 195.211 192.26C196.339 191.166 196.822 189.583 197.254 188.074C198.247 184.623 199.246 181.003 198.511 177.49C198.33 176.426 197.862 175.431 197.159 174.612C196.801 174.209 196.343 173.907 195.832 173.737C195.321 173.566 194.774 173.533 194.246 173.641C193.017 173.966 192.254 175.173 191.704 176.317C190.079 179.698 189.226 183.397 189.207 187.148C189.207 188.893 189.409 190.722 190.391 192.165" fill="#781596"/>
<path d="M186.951 194.729C188.309 193.113 188.567 190.756 187.961 188.73C187.273 186.721 186.047 184.939 184.415 183.579C182.556 181.938 180.397 180.672 178.057 179.853C177.149 179.486 176.173 179.319 175.195 179.365C174.706 179.394 174.233 179.541 173.814 179.794C173.396 180.048 173.045 180.399 172.793 180.818C172.125 182.092 172.765 183.624 173.461 184.903C174.684 187.13 176.08 189.258 177.636 191.267C178.887 192.877 180.324 194.471 182.232 195.195C184.14 195.919 186.121 195.84 187.131 194.516" fill="#781596"/>
<g opacity="0.1">
<path d="M186.951 194.729C188.309 193.113 188.567 190.756 187.961 188.73C187.273 186.721 186.047 184.939 184.415 183.579C182.556 181.938 180.397 180.672 178.057 179.853C177.149 179.486 176.173 179.319 175.195 179.365C174.706 179.394 174.233 179.541 173.814 179.794C173.396 180.048 173.045 180.399 172.793 180.818C172.125 182.092 172.765 183.624 173.461 184.903C174.684 187.13 176.08 189.258 177.636 191.267C178.887 192.877 180.324 194.471 182.232 195.195C184.14 195.919 186.121 195.84 187.131 194.516" fill="black"/>
</g>
<path d="M190.307 219.168C190.372 218.901 190.41 218.628 190.419 218.354C190.481 217.759 190.548 217.019 190.638 216.109C190.748 215.017 190.915 213.93 191.137 212.855C191.427 211.543 191.823 210.258 192.321 209.011C192.808 207.764 193.47 206.593 194.285 205.532C194.948 204.667 195.795 203.961 196.766 203.466C197.424 203.143 198.128 202.923 198.853 202.816C199.126 202.806 199.397 202.769 199.661 202.703C199.389 202.67 199.114 202.67 198.842 202.703C198.087 202.76 197.348 202.95 196.659 203.264C195.64 203.749 194.745 204.461 194.044 205.346C193.194 206.422 192.508 207.617 192.007 208.893C191.503 210.166 191.111 211.48 190.834 212.821C190.623 213.909 190.479 215.009 190.402 216.115C190.329 217.058 190.301 217.799 190.29 218.36C190.268 218.629 190.274 218.9 190.307 219.168Z" fill="#263238"/>
<path d="M190.458 217.451C190.475 217.326 190.475 217.199 190.458 217.075V215.997C190.458 215.06 190.458 213.702 190.503 212.03C190.587 208.663 190.874 204.056 191.435 198.977C191.996 193.899 192.737 189.325 193.416 186.07C193.573 185.251 193.736 184.51 193.887 183.865C194.039 183.22 194.156 182.653 194.274 182.182C194.392 181.71 194.459 181.407 194.527 181.132C194.565 181.01 194.588 180.884 194.594 180.756C194.537 180.869 194.494 180.987 194.465 181.11L194.151 182.148C194.01 182.597 193.87 183.152 193.707 183.798C193.545 184.443 193.36 185.178 193.18 186.003C192.265 190.273 191.577 194.589 191.12 198.932C190.559 204.022 190.312 208.657 190.29 212.013C190.29 213.696 190.29 215.049 190.346 215.986C190.372 216.424 190.395 216.783 190.413 217.063C190.416 217.194 190.431 217.323 190.458 217.451Z" fill="#263238"/>
<path d="M190.481 208.517C190.511 208.143 190.511 207.768 190.481 207.395C190.418 206.372 190.302 205.353 190.133 204.342C189.575 201 188.618 197.737 187.282 194.623C185.993 191.475 184.14 188.588 181.816 186.104C181.415 185.678 180.985 185.279 180.531 184.909C180.335 184.741 180.161 184.578 179.97 184.443L179.476 184.101C179.174 183.873 178.855 183.669 178.522 183.489C179.616 184.351 180.656 185.278 181.637 186.267C183.883 188.771 185.686 191.641 186.968 194.752C187.705 196.448 188.329 198.192 188.837 199.97C189.325 201.603 189.65 203.107 189.897 204.376C190.144 205.644 190.262 206.682 190.346 207.4C190.364 207.775 190.409 208.148 190.481 208.517Z" fill="#263238"/>
<path d="M105.134 134.539H128.63L137.934 108.546H136.632L127.406 133.271L105.134 133.4V134.539Z" fill="#455A64"/>
<path d="M94.7522 137.822L95.622 219.241H98.0125L97.0417 137.221L94.7522 137.822Z" fill="#263238"/>
<path d="M145.044 137.031C144.724 138.585 147.198 219.426 147.198 219.426H149.443L147.619 137.031H145.044Z" fill="#263238"/>
<path d="M172.512 134.539H72.6088V138.658H80.8522L75.4875 218.977L77.8332 219.106L83.2035 138.658H164.106L168.029 219.14H170.38L166.457 138.658H172.512V134.539Z" fill="#263238"/>
<path d="M116.16 216.177V210.004L104.595 209.886L104.466 218.921L105.184 218.971C108.372 219.185 121.413 219.813 123.551 219.19C125.93 218.494 116.16 216.177 116.16 216.177Z" fill="#781596"/>
<path d="M108.652 218.87C108.493 217.893 107.977 217.009 107.204 216.39C106.446 215.775 105.486 215.465 104.511 215.52L104.477 218.753L108.652 218.87Z" fill="#F5F5F5"/>
<path d="M120.919 217.479C120.919 217.479 124.354 218.511 123.916 219.072C123.478 219.634 110.28 219.493 104.46 218.921V218.663L119.859 218.96C119.859 218.96 120.246 217.501 120.919 217.479Z" fill="#F5F5F5"/>
<path d="M104.5 218.652L105.061 218.696L107.159 218.809C108.933 218.893 111.385 218.971 114.095 219.005C116.806 219.039 119.264 219.005 121.037 218.966L123.141 218.904L123.703 218.876H123.899C123.834 218.867 123.768 218.867 123.703 218.876H123.141H121.037C119.264 218.876 116.806 218.876 114.101 218.876C111.396 218.876 108.938 218.775 107.165 218.719L105.061 218.652H104.5Z" fill="#263238"/>
<path d="M119.875 219.134C119.971 218.787 120.106 218.451 120.279 218.135C120.488 217.842 120.731 217.574 121.003 217.338C120.656 217.488 120.363 217.741 120.162 218.061C119.962 218.382 119.864 218.756 119.881 219.134H119.875Z" fill="#263238"/>
<path d="M116.48 217.372C116.514 217.372 116.682 217.192 116.851 216.929C117.019 216.665 117.137 216.435 117.103 216.412C117.07 216.39 116.907 216.592 116.733 216.856C116.612 217.008 116.526 217.184 116.48 217.372Z" fill="#263238"/>
<path d="M115.549 216.889C115.577 216.918 115.762 216.8 115.964 216.62C116.166 216.441 116.306 216.278 116.278 216.25C116.25 216.222 116.071 216.34 115.869 216.513C115.667 216.687 115.526 216.839 115.549 216.889Z" fill="#263238"/>
<path d="M114.971 215.767C115.162 215.841 115.367 215.87 115.571 215.851C115.775 215.878 115.982 215.859 116.177 215.795C115.986 215.721 115.781 215.692 115.577 215.711C115.373 215.685 115.166 215.704 114.971 215.767Z" fill="#263238"/>
<path d="M114.774 214.998C114.982 215.111 115.211 215.18 115.447 215.2C115.682 215.221 115.92 215.192 116.144 215.116C115.687 215.081 115.23 215.041 114.774 214.998Z" fill="#263238"/>
<path d="M116.884 216.368C117.131 216.41 117.384 216.41 117.631 216.368C117.899 216.339 118.164 216.285 118.422 216.205C118.58 216.161 118.733 216.099 118.877 216.02C118.921 215.996 118.96 215.965 118.992 215.926C119.023 215.888 119.047 215.843 119.062 215.795C119.074 215.74 119.071 215.682 119.052 215.628C119.033 215.575 118.999 215.528 118.955 215.492C118.673 215.353 118.352 215.315 118.046 215.384C117.739 215.454 117.466 215.627 117.272 215.874C117.153 216.019 117.067 216.187 117.019 216.368C117.019 216.497 117.019 216.57 117.019 216.57C117.093 216.341 117.209 216.128 117.361 215.941C117.53 215.745 117.752 215.602 118.001 215.531C118.146 215.485 118.3 215.467 118.452 215.48C118.604 215.492 118.752 215.535 118.888 215.604C119.006 215.694 118.955 215.829 118.826 215.907C118.692 215.979 118.551 216.038 118.405 216.081C118.154 216.165 117.897 216.229 117.636 216.272C117.171 216.328 116.884 216.328 116.884 216.368Z" fill="#263238"/>
<path d="M117.075 216.407C117.169 216.252 117.203 216.069 117.171 215.891C117.15 215.691 117.083 215.499 116.974 215.329C116.913 215.218 116.824 215.124 116.716 215.056C116.608 214.988 116.484 214.949 116.357 214.942C116.281 214.957 116.214 215.002 116.171 215.066C116.128 215.13 116.112 215.209 116.127 215.285C116.142 215.402 116.182 215.515 116.245 215.616C116.344 215.779 116.461 215.932 116.593 216.07C116.705 216.206 116.85 216.31 117.014 216.373C117.014 216.373 116.868 216.239 116.666 216.003C116.549 215.865 116.447 215.714 116.363 215.554C116.262 215.397 116.194 215.111 116.363 215.083C116.531 215.054 116.739 215.251 116.851 215.402C116.95 215.548 117.019 215.712 117.053 215.885C117.081 216.058 117.088 216.233 117.075 216.407Z" fill="#263238"/>
<path d="M104.573 215.492C104.573 215.492 104.904 215.464 105.425 215.531C106.105 215.618 106.748 215.89 107.283 216.317C107.804 216.765 108.192 217.348 108.405 218.001C108.574 218.494 108.59 218.831 108.613 218.826C108.635 218.82 108.613 218.741 108.613 218.595C108.594 218.383 108.554 218.172 108.495 217.967C108.293 217.286 107.891 216.682 107.34 216.233C106.789 215.785 106.116 215.513 105.409 215.453C105.196 215.429 104.981 215.429 104.769 215.453C104.702 215.453 104.635 215.467 104.573 215.492Z" fill="#263238"/>
<path d="M105.824 210.717C105.689 212.295 105.652 213.881 105.712 215.464C105.801 214.676 105.842 213.883 105.835 213.09C105.876 212.3 105.872 211.507 105.824 210.717Z" fill="#263238"/>
<path d="M110.122 217.759C110.673 217.896 111.239 217.958 111.806 217.944C112.37 217.981 112.936 217.942 113.489 217.827C113.489 217.787 112.732 217.827 111.806 217.827C110.88 217.827 110.128 217.72 110.122 217.759Z" fill="#263238"/>
<path d="M107.855 217.731C107.855 217.759 107.917 217.894 107.99 218.068C108.063 218.242 108.108 218.393 108.147 218.393C108.186 218.393 108.209 218.208 108.119 218.012C108.029 217.815 107.883 217.703 107.855 217.731Z" fill="#263238"/>
<path d="M107.014 216.659C107.014 216.687 107.058 216.805 107.176 216.929C107.294 217.052 107.412 217.131 107.44 217.103C107.468 217.075 107.395 216.957 107.277 216.833C107.159 216.71 107.042 216.631 107.014 216.659Z" fill="#263238"/>
<path d="M105.796 216.16C105.796 216.199 105.959 216.199 106.127 216.261C106.295 216.323 106.419 216.418 106.447 216.39C106.475 216.362 106.385 216.205 106.172 216.132C105.959 216.059 105.785 216.126 105.796 216.16Z" fill="#263238"/>
<path d="M104.937 215.924C104.937 215.958 104.988 216.02 105.083 216.059C105.179 216.098 105.268 216.098 105.28 216.059C105.291 216.02 105.229 215.964 105.134 215.924C105.038 215.885 104.937 215.885 104.937 215.924Z" fill="#263238"/>
<path d="M138.899 209.948L136.362 204.308L125.773 208.96L129.37 217.243L130.044 216.996C133.04 215.874 145.195 211.087 146.878 209.639C148.781 208.023 138.899 209.948 138.899 209.948Z" fill="#781596"/>
<path d="M133.192 215.475C132.646 214.643 131.81 214.043 130.846 213.792C129.904 213.547 128.904 213.661 128.04 214.112L129.337 217.069L133.192 215.475Z" fill="#F5F5F5"/>
<path d="M143.798 209.162C143.798 209.162 147.35 208.685 147.165 209.381C146.979 210.077 134.909 215.374 129.37 217.237L129.286 216.996L143.439 210.93C143.439 210.93 143.192 209.46 143.798 209.162Z" fill="#F5F5F5"/>
<path d="M129.129 217.069L129.32 217.007L129.881 216.811L131.845 216.048C133.495 215.391 135.773 214.46 138.248 213.371C140.723 212.282 142.956 211.255 144.555 210.481L146.446 209.561L146.957 209.297C147.019 209.272 147.077 209.24 147.131 209.202L146.946 209.274L146.424 209.51L144.516 210.397C142.905 211.138 140.672 212.159 138.192 213.242C135.711 214.325 133.444 215.279 131.806 215.958L129.864 216.76L129.337 216.979L129.129 217.069Z" fill="#263238"/>
<path d="M143.528 211.104C143.469 210.748 143.454 210.386 143.483 210.026C143.557 209.673 143.668 209.329 143.815 209C143.539 209.265 143.371 209.623 143.343 210.004C143.268 210.381 143.334 210.772 143.528 211.104Z" fill="#263238"/>
<path d="M139.729 210.885C139.769 210.885 139.836 210.644 139.886 210.324C139.937 210.004 139.943 209.763 139.886 209.763C139.83 209.763 139.78 210.004 139.729 210.324C139.683 210.508 139.683 210.701 139.729 210.885Z" fill="#263238"/>
<path d="M138.652 210.812C138.686 210.812 138.803 210.638 138.916 210.397C139.028 210.156 139.084 209.942 139.05 209.926C139.017 209.909 138.899 210.094 138.787 210.341C138.674 210.588 138.607 210.795 138.652 210.812Z" fill="#263238"/>
<path d="M137.67 210.049C137.867 210.03 138.058 209.971 138.231 209.875C138.54 209.746 138.792 209.611 138.759 209.578C138.725 209.544 138.484 209.617 138.197 209.746C137.911 209.875 137.653 210.01 137.67 210.049Z" fill="#263238"/>
<path d="M137.176 209.426C137.412 209.465 137.655 209.431 137.872 209.331C138.102 209.274 138.309 209.149 138.467 208.971C138.245 209.028 138.029 209.105 137.821 209.202C137.6 209.256 137.384 209.331 137.176 209.426Z" fill="#263238"/>
<path d="M139.662 209.808C139.904 209.745 140.133 209.643 140.341 209.505C140.572 209.365 140.79 209.206 140.992 209.028C141.118 208.922 141.233 208.804 141.334 208.674C141.393 208.591 141.419 208.489 141.407 208.388C141.397 208.333 141.371 208.282 141.332 208.242C141.293 208.202 141.243 208.175 141.188 208.163C140.985 208.155 140.783 208.192 140.596 208.271C140.409 208.351 140.242 208.471 140.107 208.623C139.972 208.775 139.873 208.955 139.816 209.15C139.76 209.346 139.747 209.551 139.78 209.752C139.786 209.821 139.807 209.888 139.842 209.948C139.821 209.707 139.84 209.464 139.898 209.23C139.971 208.982 140.116 208.762 140.313 208.596C140.542 208.391 140.842 208.284 141.149 208.298C141.295 208.326 141.306 208.472 141.216 208.601C141.124 208.721 141.021 208.832 140.908 208.932C140.711 209.109 140.503 209.272 140.285 209.42C139.909 209.673 139.651 209.785 139.662 209.808Z" fill="#263238"/>
<path d="M139.853 209.763C139.87 209.584 139.825 209.406 139.724 209.258C139.623 209.089 139.485 208.945 139.32 208.837C139.218 208.762 139.098 208.714 138.973 208.697C138.847 208.68 138.719 208.696 138.601 208.741C138.538 208.786 138.495 208.853 138.482 208.928C138.468 209.004 138.485 209.082 138.528 209.145C138.59 209.248 138.674 209.334 138.775 209.398C138.932 209.509 139.102 209.602 139.28 209.673C139.439 209.749 139.615 209.783 139.791 209.774C139.791 209.774 139.6 209.712 139.32 209.578C139.154 209.502 138.998 209.408 138.854 209.297C138.697 209.196 138.523 208.966 138.68 208.859C138.774 208.832 138.874 208.825 138.971 208.841C139.068 208.856 139.16 208.893 139.241 208.949C139.395 209.039 139.527 209.161 139.628 209.308C139.716 209.453 139.791 209.605 139.853 209.763Z" fill="#263238"/>
<path d="M128.08 214.084C128.08 214.084 128.366 213.921 128.871 213.769C129.525 213.564 130.224 213.549 130.886 213.724C131.549 213.9 132.148 214.26 132.614 214.763C132.973 215.15 133.124 215.447 133.147 215.43C133.125 215.355 133.093 215.283 133.051 215.217C132.949 215.032 132.827 214.859 132.687 214.701C132.225 214.159 131.611 213.768 130.925 213.579C130.237 213.402 129.513 213.431 128.843 213.663C128.647 213.734 128.458 213.827 128.282 213.938C128.136 214.016 128.074 214.084 128.08 214.084Z" fill="#263238"/>
<path d="M127.243 209.185C127.482 209.95 127.768 210.7 128.102 211.429C128.393 212.167 128.725 212.889 129.095 213.59C128.851 212.835 128.563 212.094 128.231 211.373C127.943 210.626 127.613 209.895 127.243 209.185Z" fill="#263238"/>
<path d="M134.067 213.859C134.626 213.752 135.169 213.575 135.683 213.332C136.215 213.134 136.717 212.864 137.176 212.529C137.176 212.496 136.486 212.838 135.627 213.203C134.769 213.567 134.056 213.82 134.067 213.859Z" fill="#263238"/>
<path d="M131.991 214.763C131.991 214.802 132.114 214.886 132.255 215.015C132.395 215.144 132.496 215.268 132.53 215.245C132.563 215.223 132.53 215.054 132.35 214.909C132.17 214.763 132.002 214.729 131.991 214.763Z" fill="#263238"/>
<path d="M130.784 214.134C130.784 214.173 130.885 214.252 131.042 214.314C131.2 214.375 131.34 214.398 131.357 214.364C131.374 214.331 131.256 214.246 131.099 214.185C130.941 214.123 130.796 214.084 130.784 214.134Z" fill="#263238"/>
<path d="M129.471 214.179C129.471 214.213 129.634 214.151 129.814 214.14C129.993 214.129 130.139 214.14 130.156 214.14C130.173 214.14 130.021 213.994 129.802 214.016C129.584 214.039 129.443 214.151 129.471 214.179Z" fill="#263238"/>
<path d="M128.579 214.319C128.579 214.359 128.669 214.387 128.77 214.381C128.871 214.376 128.955 214.342 128.955 214.303C128.955 214.263 128.865 214.235 128.764 214.241C128.663 214.246 128.579 214.28 128.579 214.319Z" fill="#263238"/>
<path d="M33.9559 168.697L25.6058 106.301C25.5538 105.913 25.5891 105.518 25.7092 105.145C25.8292 104.772 26.0311 104.431 26.2999 104.146C26.5688 103.861 26.8979 103.639 27.2633 103.498C27.6286 103.356 28.0209 103.298 28.4116 103.327L48.5405 105.011C49.4384 105.086 50.2803 105.478 50.9164 106.116C51.5525 106.754 51.9415 107.597 52.0141 108.495L56.9187 167.569L33.9559 168.697Z" fill="#781596"/>
<g opacity="0.2">
<path d="M33.9559 168.697L25.6058 106.301C25.5538 105.913 25.5891 105.518 25.7092 105.145C25.8292 104.772 26.0311 104.431 26.2999 104.146C26.5688 103.861 26.8979 103.639 27.2633 103.498C27.6286 103.356 28.0209 103.298 28.4116 103.327L48.5405 105.011C49.4384 105.086 50.2803 105.478 50.9164 106.116C51.5525 106.754 51.9415 107.597 52.0141 108.495L56.9187 167.569L33.9559 168.697Z" fill="black"/>
</g>
<path d="M53.3721 76.9975C53.2038 74.6181 52.5809 72.3005 52.2498 69.9437C51.9187 67.5868 51.8514 65.1064 52.7829 62.9123C53.3531 61.6891 54.1591 60.5905 55.1548 59.6795C56.1506 58.7685 57.3163 58.0631 58.5853 57.6037C61.1341 56.6994 63.8555 56.3884 66.5426 56.6946C67.0283 56.7093 67.5066 56.818 67.9511 57.0145C68.1705 57.1161 68.3598 57.273 68.5005 57.4697C68.6412 57.6664 68.7284 57.8963 68.7536 58.1368C68.759 58.2562 68.7398 58.3754 68.6971 58.4871C68.6544 58.5987 68.5891 58.7004 68.5054 58.7857C68.4217 58.871 68.3213 58.9381 68.2105 58.9829C68.0997 59.0276 67.9808 59.0491 67.8613 59.0459C68.8863 59.1506 69.8968 59.367 70.8748 59.6912C71.2722 59.8038 71.6176 60.052 71.8512 60.3927C71.9459 60.606 71.9834 60.8405 71.9597 61.0727C71.9361 61.305 71.8523 61.5271 71.7165 61.717C71.4375 62.093 71.0935 62.4161 70.7008 62.671C70.8209 62.6473 70.9445 62.6476 71.0646 62.6717C71.1846 62.6959 71.2987 62.7434 71.4003 62.8117C71.5019 62.88 71.5891 62.9676 71.6569 63.0696C71.7246 63.1716 71.7715 63.286 71.7951 63.4061C71.831 63.6514 71.8151 63.9015 71.7484 64.1402C71.6817 64.3789 71.5657 64.601 71.4079 64.7922C71.1217 65.1962 70.7513 65.5273 70.4539 65.9145C69.2418 67.525 69.4775 69.7641 69.7693 71.7618" fill="#263238"/>
<path d="M53.591 90.9367L64.9321 90.7347C65.0836 89.4216 65.3024 84.315 65.3024 84.315C65.3024 84.315 70.0442 83.8773 70.3922 79.186C70.7401 74.4947 70.5942 63.6643 70.5942 63.6643C67.9963 62.3528 65.0955 61.7586 62.1912 61.9431C59.287 62.1276 56.4846 63.084 54.0736 64.7136L53.3441 65.2075L53.591 90.9367Z" fill="#B78876"/>
<path d="M69.0229 71.8011C68.9276 71.7052 68.8627 71.5832 68.8366 71.4505C68.8105 71.3178 68.8243 71.1803 68.8762 71.0554C68.9281 70.9306 69.0159 70.8239 69.1284 70.7488C69.2409 70.6737 69.3731 70.6337 69.5083 70.6337C69.6436 70.6337 69.7758 70.6737 69.8883 70.7488C70.0008 70.8239 70.0886 70.9306 70.1405 71.0554C70.1924 71.1803 70.2062 71.3178 70.1801 71.4505C70.154 71.5832 70.0891 71.7052 69.9937 71.8011C69.9305 71.8657 69.855 71.9171 69.7717 71.9522C69.6883 71.9872 69.5988 72.0053 69.5083 72.0053C69.4179 72.0053 69.3284 71.9872 69.245 71.9522C69.1617 71.9171 69.0862 71.8657 69.0229 71.8011Z" fill="#263238"/>
<path d="M70.2182 70.6619C70.1396 70.7405 69.7019 70.3589 69.0566 70.314C68.4112 70.2691 67.9343 70.5778 67.8501 70.488C67.7659 70.3982 67.9006 70.3084 68.1138 70.1625C68.4036 69.9837 68.7425 69.9009 69.0821 69.9261C69.4217 69.9513 69.7447 70.0831 70.005 70.3028C70.1957 70.4767 70.2575 70.6283 70.2182 70.6619Z" fill="#263238"/>
<path d="M62.7323 70.7686C62.8436 70.8463 62.9294 70.9553 62.9786 71.0819C63.0278 71.2084 63.0383 71.3467 63.0087 71.4792C62.9791 71.6117 62.9108 71.7324 62.8124 71.826C62.7141 71.9196 62.5901 71.9818 62.4563 72.0048C62.3225 72.0277 62.1849 72.0104 62.0609 71.9549C61.937 71.8995 61.8324 71.8085 61.7603 71.6934C61.6882 71.5784 61.652 71.4445 61.6562 71.3088C61.6604 71.1731 61.7049 71.0417 61.784 70.9313C61.8354 70.8582 61.9008 70.796 61.9764 70.7482C62.052 70.7005 62.1362 70.6681 62.2243 70.653C62.3124 70.6378 62.4027 70.6403 62.4898 70.6601C62.577 70.68 62.6594 70.7168 62.7323 70.7686Z" fill="#263238"/>
<path d="M63.1588 70.8022C63.0802 70.8752 62.6425 70.4936 61.9972 70.4487C61.3518 70.4038 60.8748 70.7124 60.7963 70.6282C60.7177 70.5441 60.8412 70.4431 61.06 70.3028C61.3478 70.121 61.6865 70.0365 62.0259 70.0618C62.3654 70.087 62.6878 70.2207 62.9455 70.4431C63.1363 70.6114 63.1981 70.7685 63.1588 70.8022Z" fill="#263238"/>
<path d="M65.4259 76.296C65.766 76.1837 66.1228 76.1305 66.4809 76.1389C66.6548 76.1389 66.7895 76.0996 66.8063 76.0098C66.8207 75.8401 66.7897 75.6697 66.7165 75.516C66.5762 75.0783 66.4303 74.635 66.2844 74.1692C65.6952 72.2556 65.2912 70.6788 65.3922 70.6507C65.4932 70.6227 66.0431 72.149 66.638 74.0626C66.7783 74.5283 66.9073 74.9773 67.042 75.415C67.1342 75.6413 67.1499 75.8915 67.0869 76.1277C67.0588 76.1909 67.0162 76.2467 66.9626 76.2906C66.909 76.3344 66.8459 76.3651 66.7783 76.3802C66.6831 76.3904 66.5872 76.3904 66.4921 76.3802C66.1345 76.4127 65.7739 76.3842 65.4259 76.296Z" fill="#263238"/>
<path d="M63.2766 76.8796C62.6313 76.4363 65.0723 78.0019 66.391 78.0019C66.1496 78.3254 65.8053 78.5572 65.4148 78.6592C65.0242 78.7612 64.6106 78.7273 64.2418 78.5631C62.8501 77.9739 63.2766 76.8796 63.2766 76.8796Z" fill="white"/>
<path d="M65.3192 84.2477C63.1481 84.157 61.0535 83.4204 59.3036 82.1321C59.3036 82.1321 60.5438 85.6001 65.2519 85.4654L65.3192 84.2477Z" fill="#A36957"/>
<path d="M53.1925 68.7427L53.4338 74.8313C53.4338 74.8313 55.5718 74.1804 55.7121 74.1187C55.8524 74.0569 55.6729 66.6608 55.6729 66.6608C55.6729 66.6608 55.3754 63.855 57.1936 63.2097C59.1072 62.5195 59.9377 63.9055 62.6481 64.332C71.5874 65.8415 70.9757 63.0975 70.9757 63.0975C70.9757 63.0975 72.0981 61.8909 69.8029 60.5666C67.5078 59.2423 61.7671 58.7933 58.6246 59.8764C52.4518 62.0032 52.0814 64.1188 52.0814 65.9874C52.0814 68.653 53.1925 68.7427 53.1925 68.7427Z" fill="#263238"/>
<path d="M54.2419 69.3713C54.1409 69.332 50.7627 68.8943 51.0826 72.8841C51.4024 76.874 55.325 75.2354 55.325 75.1288C55.325 75.0222 54.2419 69.3713 54.2419 69.3713Z" fill="#B78876"/>
<path d="M53.9894 73.7933C53.9894 73.7933 53.9221 73.8494 53.8098 73.9111C53.649 73.9948 53.4619 74.0129 53.288 73.9616C53.0158 73.8219 52.7868 73.6107 52.6257 73.3507C52.4645 73.0907 52.3773 72.7916 52.3733 72.4857C52.3345 72.143 52.3728 71.796 52.4855 71.47C52.5154 71.3448 52.5748 71.2286 52.6588 71.131C52.7427 71.0334 52.8488 70.9572 52.9681 70.9089C53.0464 70.8819 53.1316 70.8828 53.2094 70.9114C53.2871 70.94 53.3525 70.9947 53.3946 71.066C53.4563 71.1726 53.4339 71.2568 53.4563 71.2624C53.4788 71.268 53.5349 71.1839 53.49 71.0267C53.4624 70.9282 53.4007 70.8427 53.316 70.7854C53.1977 70.7157 53.058 70.6917 52.9232 70.7181C52.7618 70.7627 52.6145 70.848 52.4956 70.966C52.3767 71.0839 52.2901 71.2304 52.2442 71.3915C52.1028 71.7476 52.0508 72.1329 52.0927 72.5138C52.1825 73.3163 52.6539 74.0345 53.215 74.158C53.3249 74.1803 53.4383 74.1778 53.5471 74.1506C53.6558 74.1234 53.7571 74.0723 53.8435 74.0009C53.9894 73.9167 54.0006 73.8213 53.9894 73.7933Z" fill="#A36957"/>
<path d="M98.8094 123.175C98.8094 123.175 104.421 122.906 105.543 123.417C107.485 124.264 113.265 133.327 112.973 133.327C112.098 133.327 110.296 133.327 110.296 133.327L101.318 129.921L99.2022 130.454L98.8094 123.175Z" fill="#B78876"/>
<path d="M122.939 149.197C122.939 149.197 139.729 207.35 139.769 207.064C139.808 206.777 124.718 214.319 124.718 214.319L114.539 172.266L122.939 149.197Z" fill="#263238"/>
<path d="M124.387 214.673L140.291 206.912L139.6 204.785L123.573 212.557L124.387 214.673Z" fill="#455A64"/>
<path d="M122.3 193.281C122.215 193.281 122.041 192.939 121.901 192.473C121.761 192.008 121.716 191.598 121.8 191.575C121.884 191.553 122.058 191.912 122.199 192.384C122.339 192.855 122.378 193.253 122.3 193.281Z" fill="#455A64"/>
<path d="M123.338 196.688C123.254 196.688 123.068 196.351 122.928 195.885C122.788 195.419 122.732 195.015 122.81 194.987C122.889 194.959 123.074 195.324 123.22 195.79C123.366 196.256 123.416 196.648 123.338 196.688Z" fill="#455A64"/>
<path d="M124.421 200.055C124.337 200.083 124.151 199.724 124 199.258C123.848 198.792 123.792 198.394 123.871 198.366C123.949 198.337 124.14 198.697 124.292 199.162C124.443 199.628 124.499 200.055 124.421 200.055Z" fill="#455A64"/>
<path d="M125.554 203.422C125.47 203.45 125.279 203.096 125.122 202.63C124.965 202.165 124.898 201.766 124.982 201.738C125.066 201.71 125.257 202.064 125.414 202.529C125.571 202.995 125.633 203.422 125.554 203.422Z" fill="#455A64"/>
<path d="M126.733 206.789C126.654 206.789 126.452 206.463 126.289 206.003C126.127 205.543 126.054 205.144 126.138 205.116C126.222 205.088 126.413 205.436 126.581 205.902C126.75 206.368 126.823 206.744 126.733 206.789Z" fill="#455A64"/>
<path d="M127.945 210.105C127.861 210.105 127.659 209.785 127.49 209.325C127.322 208.865 127.243 208.466 127.322 208.438C127.401 208.41 127.608 208.758 127.777 209.218C127.945 209.679 128.04 210.077 127.945 210.105Z" fill="#455A64"/>
<path d="M127.064 211.502C126.926 211.316 126.812 211.112 126.727 210.896C126.531 210.492 126.261 209.903 125.953 209.168C125.33 207.698 124.561 205.627 123.787 203.321C123.012 201.014 122.361 198.904 121.901 197.378C121.688 196.66 121.508 196.054 121.34 195.565C121.259 195.347 121.206 195.118 121.183 194.886C121.293 195.091 121.383 195.305 121.452 195.526C121.609 195.947 121.823 196.553 122.081 197.311L124.05 203.22C124.819 205.526 125.554 207.602 126.127 209.089L126.811 210.846C126.919 211.055 127.003 211.275 127.064 211.502Z" fill="#455A64"/>
<path d="M44.6068 145.156C44.747 142.075 42.9962 162.064 58.3608 162.591C73.7254 163.119 105.117 162.889 105.117 162.889L101.441 213.579H119.875L123.725 159.651C123.725 159.651 125.689 144.028 114.999 142.036C108.31 140.785 66.7109 140.386 66.7109 140.386L44.6068 145.156Z" fill="#263238"/>
<path d="M101.02 213.685H120.431V210.666L101.02 210.694V213.685Z" fill="#455A64"/>
<path d="M70.6559 160.212C70.7211 160.204 70.7871 160.204 70.8523 160.212L71.4134 160.178L73.6581 160.077L81.9914 159.758L110.1 158.792H110.28V158.972C110.027 161.037 109.814 163.22 109.634 165.437C109.387 168.607 109.152 171.699 108.922 174.685C108.691 177.67 108.36 180.543 108.074 183.282C107.513 188.747 106.985 193.674 106.548 197.821C106.11 201.968 105.745 205.29 105.493 207.619C105.364 208.741 105.263 209.662 105.19 210.285C105.156 210.576 105.128 210.807 105.106 210.975C105.099 211.054 105.085 211.133 105.066 211.211C105.058 211.132 105.058 211.053 105.066 210.975C105.066 210.801 105.1 210.571 105.122 210.279C105.179 209.651 105.263 208.753 105.369 207.608C105.594 205.279 105.931 201.929 106.329 197.799C106.727 193.669 107.238 188.725 107.788 183.248C108.057 180.509 108.349 177.636 108.613 174.656C108.877 171.677 109.079 168.579 109.32 165.414C109.5 163.169 109.713 161.009 109.971 158.933L110.128 159.107L82.0138 159.965L73.6805 160.195L71.4359 160.24H70.8747C70.8008 160.242 70.727 160.233 70.6559 160.212Z" fill="#455A64"/>
<path d="M72.4292 158.018C72.4292 158.102 72.0363 158.181 71.5425 158.192C71.0487 158.203 70.6559 158.147 70.6559 158.063C70.6559 157.979 71.0487 157.895 71.5369 157.883C72.0251 157.872 72.4292 157.934 72.4292 158.018Z" fill="#455A64"/>
<path d="M75.9813 157.934C75.9813 158.018 75.5885 158.097 75.0947 158.108C74.6009 158.119 74.2081 158.063 74.2025 157.979C74.1968 157.895 74.6009 157.816 75.0891 157.799C75.5773 157.782 75.9813 157.85 75.9813 157.934Z" fill="#455A64"/>
<path d="M79.5335 157.85C79.5335 157.939 79.1406 158.012 78.6468 158.029C78.153 158.046 77.7602 157.979 77.7546 157.895C77.749 157.81 78.153 157.732 78.6412 157.721C79.1294 157.709 79.5335 157.766 79.5335 157.85Z" fill="#455A64"/>
<path d="M83.0856 157.766C83.0856 157.855 82.6928 157.934 82.199 157.945C81.7052 157.956 81.3124 157.895 81.3068 157.81C81.3011 157.726 81.7052 157.648 82.1934 157.636C82.6816 157.625 83.0856 157.681 83.0856 157.766Z" fill="#455A64"/>
<path d="M86.6378 157.687C86.6378 157.771 86.245 157.85 85.7511 157.861C85.2573 157.872 84.8645 157.81 84.8589 157.726C84.8533 157.642 85.2573 157.563 85.7455 157.552C86.2337 157.541 86.6378 157.597 86.6378 157.687Z" fill="#455A64"/>
<path d="M90.19 157.603C90.19 157.687 89.7971 157.765 89.3033 157.777C88.8095 157.788 88.4167 157.726 88.4111 157.642C88.4055 157.558 88.8095 157.479 89.2977 157.468C89.7859 157.457 90.1843 157.519 90.19 157.603Z" fill="#455A64"/>
<path d="M93.7421 157.519C93.7421 157.603 93.3493 157.681 92.8554 157.693C92.3616 157.704 91.9688 157.642 91.9632 157.558C91.9576 157.474 92.356 157.395 92.8498 157.384C93.3437 157.373 93.714 157.434 93.7421 157.519Z" fill="#455A64"/>
<path d="M97.2943 157.434C97.2943 157.519 96.9014 157.597 96.4076 157.608C95.9138 157.62 95.521 157.563 95.5154 157.474C95.5098 157.384 95.9082 157.311 96.402 157.3C96.8958 157.288 97.2886 157.35 97.2943 157.434Z" fill="#455A64"/>
<path d="M100.846 157.35C100.846 157.434 100.454 157.513 99.9598 157.524C99.4659 157.535 99.0731 157.479 99.0675 157.395C99.0619 157.311 99.4603 157.227 99.9541 157.216C100.448 157.204 100.841 157.266 100.846 157.35Z" fill="#455A64"/>
<path d="M104.376 157.266C104.376 157.35 103.978 157.429 103.489 157.44C103.001 157.451 102.603 157.395 102.597 157.311C102.592 157.227 102.99 157.143 103.484 157.131C103.978 157.12 104.376 157.182 104.376 157.266Z" fill="#455A64"/>
<path d="M107.951 157.182C107.951 157.266 107.552 157.345 107.064 157.356C106.576 157.367 106.177 157.311 106.172 157.227C106.166 157.143 106.565 157.064 107.058 157.053C107.552 157.042 107.945 157.098 107.951 157.182Z" fill="#455A64"/>
<path d="M111.503 157.098C111.503 157.188 111.104 157.266 110.616 157.277C110.128 157.289 109.724 157.227 109.724 157.143C109.724 157.058 110.117 156.98 110.611 156.969C111.104 156.957 111.497 157.014 111.503 157.098Z" fill="#455A64"/>
<path d="M111.497 160.319C111.407 160.319 111.379 159.909 111.43 159.421C111.48 158.933 111.581 158.545 111.666 158.551C111.75 158.557 111.783 158.961 111.733 159.449C111.682 159.937 111.581 160.33 111.497 160.319Z" fill="#455A64"/>
<path d="M111.149 163.854C111.065 163.854 111.032 163.444 111.082 162.956C111.133 162.468 111.239 162.081 111.323 162.086C111.407 162.092 111.436 162.496 111.391 162.984C111.346 163.472 111.234 163.865 111.149 163.854Z" fill="#455A64"/>
<path d="M110.801 167.389C110.717 167.389 110.684 166.98 110.734 166.492C110.785 166.003 110.891 165.616 110.975 165.622C111.06 165.627 111.088 166.037 111.043 166.525C110.998 167.013 110.886 167.401 110.801 167.389Z" fill="#455A64"/>
<path d="M110.454 170.925C110.369 170.925 110.341 170.515 110.386 170.027C110.431 169.539 110.543 169.151 110.627 169.157C110.712 169.163 110.74 169.572 110.695 170.061C110.65 170.549 110.549 170.936 110.454 170.925Z" fill="#455A64"/>
<path d="M110.106 174.466C110.021 174.466 109.993 174.05 110.038 173.562C110.083 173.074 110.195 172.687 110.28 172.698C110.364 172.709 110.397 173.108 110.347 173.596C110.296 174.084 110.19 174.471 110.106 174.466Z" fill="#455A64"/>
<path d="M109.758 178.001C109.673 178.001 109.645 177.586 109.696 177.097C109.746 176.609 109.847 176.222 109.932 176.233C110.016 176.244 110.049 176.643 109.999 177.131C109.948 177.619 109.847 178.007 109.758 178.001Z" fill="#455A64"/>
<path d="M109.427 181.536C109.337 181.536 109.309 181.127 109.359 180.638C109.41 180.15 109.511 179.757 109.601 179.769C109.69 179.78 109.713 180.178 109.662 180.667C109.612 181.155 109.5 181.536 109.427 181.536Z" fill="#455A64"/>
<path d="M109.067 185.072C108.983 185.072 108.95 184.662 109 184.174C109.051 183.686 109.157 183.293 109.241 183.304C109.326 183.315 109.354 183.714 109.309 184.202C109.264 184.69 109.152 185.077 109.067 185.072Z" fill="#455A64"/>
<path d="M108.72 188.607C108.635 188.607 108.607 188.197 108.652 187.709C108.697 187.221 108.809 186.834 108.893 186.839C108.978 186.845 109.006 187.249 108.961 187.737C108.916 188.225 108.804 188.618 108.72 188.607Z" fill="#455A64"/>
<path d="M108.372 192.142C108.287 192.142 108.259 191.733 108.304 191.244C108.349 190.756 108.461 190.369 108.546 190.375C108.63 190.38 108.658 190.784 108.613 191.272C108.568 191.761 108.456 192.153 108.372 192.142Z" fill="#455A64"/>
<path d="M108.024 195.678C107.94 195.678 107.911 195.268 107.956 194.78C108.001 194.292 108.113 193.904 108.198 193.91C108.282 193.916 108.315 194.32 108.265 194.808C108.214 195.296 108.108 195.689 108.024 195.678Z" fill="#455A64"/>
<path d="M107.681 199.213C107.592 199.213 107.564 198.803 107.614 198.315C107.665 197.827 107.766 197.44 107.85 197.445C107.934 197.451 107.968 197.861 107.917 198.349C107.867 198.837 107.743 199.224 107.681 199.213Z" fill="#455A64"/>
<path d="M107.333 202.748C107.249 202.748 107.216 202.339 107.266 201.85C107.317 201.362 107.418 200.975 107.507 200.981C107.597 200.986 107.62 201.396 107.569 201.884C107.519 202.372 107.418 202.759 107.333 202.748Z" fill="#455A64"/>
<path d="M106.986 206.289C106.901 206.289 106.868 205.874 106.918 205.386C106.969 204.897 107.075 204.51 107.16 204.521C107.244 204.533 107.272 204.931 107.227 205.419C107.182 205.908 107.07 206.295 106.986 206.289Z" fill="#455A64"/>
<path d="M106.621 209.824C106.537 209.824 106.509 209.415 106.553 208.927C106.598 208.438 106.711 208.046 106.795 208.057C106.879 208.068 106.907 208.466 106.862 208.955C106.817 209.443 106.722 209.83 106.621 209.824Z" fill="#455A64"/>
<path d="M106.452 211.699C106.368 211.699 106.301 211.659 106.307 211.631C106.312 211.603 106.379 211.581 106.464 211.592C106.548 211.603 106.615 211.631 106.615 211.659C106.615 211.688 106.537 211.704 106.452 211.699Z" fill="#455A64"/>
<path d="M107.631 160.526C107.308 161.033 106.9 161.479 106.424 161.845C106.015 162.285 105.535 162.653 105.005 162.934C105.736 161.987 106.624 161.172 107.631 160.526Z" fill="#263238"/>
<path d="M108.905 161.211C108.295 161.651 107.629 162.008 106.924 162.272C106.259 162.625 105.549 162.885 104.814 163.046C105.424 162.606 106.09 162.249 106.795 161.985C107.46 161.633 108.17 161.373 108.905 161.211Z" fill="#263238"/>
<path d="M71.4191 120.987C71.4191 120.987 69.5392 100.847 66.2003 92.0309L66.8625 91.5315L65.8692 88.0579L53.3777 86.5428L53.5686 89.2532C51.7252 90.0835 50.2192 91.5163 49.2981 93.316C44.8088 102.822 47.0535 113.922 44.6461 134.488C44.6461 134.488 41.8403 144.135 44.7359 147.154L71.9915 140.802L70.7064 134.584C82.6031 134.359 102.165 132.171 102.165 132.171L101.604 120.914C101.604 120.914 72.3731 121.088 71.4191 120.987Z" fill="#455A64"/>
<path d="M65.8467 88.0411C66.243 88.7475 66.5467 89.5019 66.7502 90.2858C66.8722 90.5922 66.9552 90.9127 66.9971 91.2398C67.0053 91.4093 66.9492 91.5756 66.84 91.7055C66.75 91.8118 66.634 91.893 66.5033 91.9412C66.0319 92.0871 65.7626 91.9861 65.7626 91.9412C65.7626 91.8963 66.0544 91.8907 66.4079 91.7224C66.5026 91.68 66.5825 91.6105 66.6375 91.5225C66.6925 91.4345 66.72 91.3322 66.7165 91.2285C66.6528 90.9324 66.5665 90.6417 66.4584 90.3587C66.1587 89.6147 65.9532 88.8362 65.8467 88.0411Z" fill="#E0E0E0"/>
<path d="M68.8265 103.035C68.8265 103.125 63.7761 103.192 57.6033 103.192C51.4305 103.192 46.3801 103.125 46.3801 103.035C46.3801 102.946 51.4305 102.884 57.6033 102.884C63.7761 102.884 68.8265 102.974 68.8265 103.035Z" fill="#263238"/>
<path d="M67.6537 97.362C67.6537 97.4462 63.1981 97.5192 57.7099 97.5192C52.2217 97.5192 47.7661 97.4462 47.7661 97.362C47.7661 97.2779 52.2161 97.2105 57.7099 97.2105C63.2037 97.2105 67.6537 97.2779 67.6537 97.362Z" fill="#263238"/>
<path d="M66.0151 92.3733C66.0151 92.4575 62.3339 92.5248 57.7885 92.5248C53.2431 92.5248 49.5674 92.4575 49.5674 92.3733C49.5674 92.2891 53.2487 92.2162 57.7885 92.2162C62.3283 92.2162 66.0151 92.3116 66.0151 92.3733Z" fill="#263238"/>
<path d="M65.8524 88.8492C63.7557 89.0079 61.6524 89.0604 59.5505 89.0063C57.4486 89.0604 55.3453 89.0079 53.2487 88.8492C53.2487 88.765 56.0545 88.6977 59.5505 88.6977C63.0465 88.6977 65.8524 88.765 65.8524 88.8492Z" fill="#263238"/>
<path d="M69.6178 108.495C69.6178 108.58 64.3036 108.647 57.7492 108.647C51.1948 108.647 45.8806 108.58 45.8806 108.495C45.8806 108.411 51.1948 108.338 57.7492 108.338C64.3036 108.338 69.6178 108.406 69.6178 108.495Z" fill="#263238"/>
<path d="M70.583 113.978C70.583 114.062 65.0555 114.13 58.2374 114.13C51.4193 114.13 45.8918 114.062 45.8918 113.978C45.8918 113.894 51.4193 113.821 58.2374 113.821C65.0555 113.821 70.583 113.894 70.583 113.978Z" fill="#263238"/>
<path d="M71.189 119.028C71.189 119.118 65.5213 119.186 58.5348 119.186C51.5484 119.186 45.8806 119.118 45.8806 119.028C45.8806 118.939 51.5484 118.877 58.5348 118.877C65.5213 118.877 71.189 118.944 71.189 119.028Z" fill="#263238"/>
<path d="M98.8094 124.556C98.8094 124.64 86.8567 124.707 72.1149 124.707C57.3732 124.707 45.4149 124.64 45.4149 124.556C45.4149 124.472 57.3676 124.399 72.1149 124.399C86.8623 124.399 98.8094 124.472 98.8094 124.556Z" fill="#263238"/>
<path d="M99.017 128.978C99.017 129.068 86.9745 129.135 72.1205 129.135C57.2666 129.135 45.2184 129.068 45.2184 128.978C45.2184 128.888 57.261 128.826 72.1205 128.826C86.9801 128.826 99.017 128.894 99.017 128.978Z" fill="#263238"/>
<path d="M70.2799 134.432C70.2799 134.522 64.528 134.59 57.4293 134.59C50.3306 134.59 44.5731 134.522 44.5731 134.432C44.5731 134.343 50.325 134.281 57.4293 134.281C64.5336 134.281 70.2799 134.348 70.2799 134.432Z" fill="#263238"/>
<path d="M71.5875 139.494C71.5875 139.578 65.3305 139.651 57.6145 139.651C49.8986 139.651 43.6416 139.578 43.6416 139.494C43.6416 139.41 49.8986 139.343 57.6145 139.343C65.3305 139.343 71.5875 139.41 71.5875 139.494Z" fill="#263238"/>
<path d="M47.7941 140.835C47.7044 140.835 47.637 131.02 47.637 118.916C47.637 106.812 47.7044 96.9973 47.7941 96.9973C47.8839 96.9973 47.9457 106.812 47.9457 118.916C47.9457 131.02 47.8783 140.835 47.7941 140.835Z" fill="#263238"/>
<path d="M54.5337 140.297C54.4495 140.297 54.3822 128.299 54.3822 113.501C54.3822 98.7032 54.4327 86.7 54.5337 86.7C54.6347 86.7 54.6908 98.692 54.6908 113.495C54.6908 128.299 54.6235 140.297 54.5337 140.297Z" fill="#263238"/>
<path d="M61.9803 139.494C61.8961 139.494 61.8288 127.929 61.8288 113.681C61.8288 99.4327 61.8961 87.8672 61.9803 87.8672C62.0645 87.8672 62.1374 99.4327 62.1374 113.681C62.1374 127.929 62.0701 139.494 61.9803 139.494Z" fill="#263238"/>
<path d="M68.2373 140.818C68.1532 140.818 68.0858 131.739 68.0858 120.544C68.0858 109.348 68.1532 100.263 68.2373 100.263C68.3215 100.263 68.3945 109.343 68.3945 120.544C68.3945 131.744 68.3215 140.818 68.2373 140.818Z" fill="#263238"/>
<path d="M74.8646 120.959C74.9375 121.615 74.9582 122.275 74.9263 122.934C74.9263 124.152 74.9263 125.83 74.859 127.682C74.7916 129.533 74.758 131.217 74.7019 132.429C74.6967 133.088 74.6442 133.747 74.5447 134.399C74.4714 133.745 74.4508 133.086 74.483 132.429C74.483 131.211 74.483 129.533 74.5503 127.676C74.6177 125.819 74.6514 124.141 74.7075 122.923C74.7057 122.265 74.7583 121.608 74.8646 120.959Z" fill="#263238"/>
<path d="M81.9296 121.195C81.9991 121.809 82.0198 122.428 81.9914 123.046C81.9914 124.169 81.9914 125.757 81.9353 127.491C81.8791 129.225 81.8342 130.802 81.7837 131.941C81.7857 132.558 81.7331 133.174 81.6266 133.781C81.5568 133.171 81.5362 132.555 81.5649 131.941C81.5649 130.819 81.5649 129.225 81.6266 127.485C81.6883 125.746 81.722 124.174 81.7781 123.035C81.7729 122.418 81.8237 121.802 81.9296 121.195Z" fill="#263238"/>
<path d="M88.9554 121.071C89.0321 121.665 89.0546 122.264 89.0227 122.861C89.0227 123.984 89.0227 125.493 88.9666 127.177C88.9105 128.86 88.8712 130.386 88.8151 131.486C88.8207 132.086 88.7699 132.686 88.6636 133.276C88.5932 132.684 88.5707 132.088 88.5962 131.492C88.5962 130.37 88.5962 128.86 88.658 127.177C88.7197 125.493 88.7534 123.961 88.8039 122.861C88.8054 122.261 88.8561 121.663 88.9554 121.071Z" fill="#263238"/>
<path d="M96.0092 120.875C96.0864 121.449 96.109 122.03 96.0765 122.609C96.0765 123.681 96.0765 125.162 96.0204 126.795C95.9643 128.428 95.9306 129.909 95.8745 130.976C95.8758 131.557 95.827 132.137 95.7286 132.71C95.6508 132.135 95.6264 131.555 95.6556 130.976C95.6556 129.904 95.6556 128.422 95.7117 126.789C95.7679 125.156 95.8071 123.669 95.8577 122.603C95.8556 122.024 95.9063 121.445 96.0092 120.875Z" fill="#263238"/>
<path d="M68.9724 123.495C69.4803 122.248 70.4043 121.215 71.5874 120.572C71.1756 121.08 70.7313 121.562 70.2575 122.014C69.8604 122.534 69.4312 123.029 68.9724 123.495Z" fill="#263238"/>
<path d="M70.5829 123.63C70.4655 123.066 70.5084 122.481 70.7068 121.94C70.9052 121.4 71.2511 120.926 71.7053 120.572C71.7726 120.633 71.3012 121.206 70.9982 122.048C70.6952 122.889 70.7064 123.63 70.5829 123.63Z" fill="#263238"/>
<path d="M99.3257 132.109C99.0112 130.329 98.7976 128.532 98.6859 126.728C98.4727 124.93 98.3602 123.122 98.3492 121.312C98.6709 123.094 98.8864 124.893 98.9946 126.7C99.2079 128.495 99.3185 130.301 99.3257 132.109Z" fill="#263238"/>
<path d="M99.6792 123.434C99.6792 123.473 99.5221 123.585 99.4997 123.866C99.4947 123.94 99.5046 124.014 99.5287 124.085C99.5528 124.155 99.5906 124.22 99.6399 124.275C99.7031 124.332 99.782 124.368 99.8661 124.379C99.9502 124.39 100.036 124.375 100.111 124.337C100.191 124.307 100.259 124.254 100.309 124.185C100.359 124.116 100.388 124.035 100.392 123.95C100.384 123.876 100.362 123.804 100.327 123.738C100.291 123.673 100.243 123.615 100.184 123.568C99.9654 123.394 99.7578 123.45 99.7466 123.406C99.7353 123.361 99.9542 123.204 100.308 123.406C100.411 123.461 100.499 123.541 100.564 123.639C100.629 123.737 100.668 123.85 100.678 123.967C100.686 124.112 100.648 124.257 100.57 124.38C100.491 124.502 100.376 124.597 100.24 124.651C100.107 124.714 99.9579 124.734 99.813 124.708C99.6681 124.682 99.5351 124.611 99.4323 124.505C99.359 124.417 99.308 124.312 99.2836 124.2C99.2592 124.088 99.2621 123.971 99.292 123.86C99.393 123.45 99.6848 123.394 99.6792 123.434Z" fill="#263238"/>
<path d="M71.3854 120.931H71.5257L71.9354 120.964C72.3001 121.004 72.8388 121.037 73.5459 121.06C74.96 121.116 77.0363 121.144 79.6794 121.122C84.9599 121.088 92.5075 120.892 101.565 120.56H101.694V120.69C101.873 124.186 102.064 127.985 102.255 132.014V132.143H102.137C100.701 132.412 99.2471 132.524 97.76 132.676L93.2258 133.069C90.1451 133.321 86.9745 133.557 83.7478 133.787L71.8848 134.584C68.4449 134.365 65.106 133.13 62.7716 130.863C61.624 129.77 60.7229 128.444 60.1285 126.975C59.5706 125.587 59.1258 124.157 58.7986 122.698C57.4125 117.087 56.5539 111.975 55.8525 107.732C55.5158 105.611 55.2296 103.698 54.9883 102.025C54.7326 100.602 54.5658 99.1648 54.4888 97.7211C54.443 96.8045 54.6364 95.8918 55.05 95.0725C55.1918 94.7927 55.3817 94.54 55.6112 94.3261C55.4145 94.5682 55.2399 94.8274 55.0893 95.1005C54.7065 95.9185 54.5366 96.8199 54.5954 97.7211C54.6969 99.1583 54.8842 100.588 55.1566 102.003C55.4204 103.686 55.7178 105.583 56.0657 107.704C56.7728 111.935 57.6706 117.014 59.0679 122.631C59.3991 124.076 59.8438 125.493 60.3979 126.868C60.9821 128.301 61.8661 129.592 62.9904 130.656C65.2351 132.861 68.5403 134.068 71.9185 134.286L83.7759 133.478L93.2483 132.766L97.7825 132.378C99.2583 132.227 100.74 132.115 102.115 131.857L102.002 132.008C101.812 127.996 101.632 124.18 101.441 120.678L101.582 120.807C92.53 121.138 84.9824 121.296 79.6962 121.284C77.0531 121.284 74.9768 121.234 73.5627 121.15C72.8557 121.11 72.3113 121.065 71.9466 121.009L71.5369 120.959C71.4854 120.957 71.4344 120.947 71.3854 120.931Z" fill="#263238"/>
<path d="M71.3854 120.931C71.2617 120.647 71.164 120.352 71.0936 120.05C70.9308 119.489 70.7064 118.647 70.437 117.614C69.8759 115.555 69.2305 112.687 68.5122 109.522C67.794 106.357 67.1374 103.49 66.6436 101.419L66.0824 98.9669C65.9948 98.6703 65.9365 98.3659 65.9084 98.0579C66.029 98.3433 66.1266 98.6379 66.2003 98.9389C66.3742 99.5 66.5987 100.336 66.8736 101.369C67.4348 103.423 68.1194 106.284 68.8377 109.455C69.556 112.626 70.1452 115.437 70.6503 117.564C70.8747 118.563 71.0655 119.388 71.2114 120.022C71.2921 120.32 71.3502 120.624 71.3854 120.931Z" fill="#263238"/>
<path d="M65.886 88.2768C65.891 88.4843 65.8703 88.6917 65.8243 88.8941C65.7682 89.2925 65.6784 89.8593 65.555 90.5776C65.5012 90.9694 65.4225 91.3574 65.3193 91.7392C65.285 91.8658 65.2214 91.9825 65.1337 92.08C65.0459 92.1775 64.9365 92.253 64.8142 92.3003C64.5678 92.3652 64.3087 92.3652 64.0623 92.3003C63.1363 92.1095 62.1263 91.8626 61.0713 91.5764C58.9669 91.0153 57.0926 90.3924 55.729 89.9715L54.1185 89.4665C53.923 89.4171 53.7345 89.3436 53.5573 89.2476C53.7648 89.2537 53.9705 89.2876 54.169 89.3486C54.5618 89.4384 55.123 89.5731 55.8132 89.7639C57.1936 90.1286 59.0791 90.701 61.1779 91.279C62.2273 91.5652 63.2261 91.8402 64.1464 92.0254C64.3438 92.0897 64.5541 92.1032 64.7581 92.0646C64.8418 92.0341 64.917 91.984 64.9775 91.9187C65.038 91.8533 65.082 91.7744 65.106 91.6887C65.2295 91.3295 65.28 90.9143 65.3642 90.5663C65.5101 89.8705 65.6391 89.3093 65.7289 88.9165C65.7501 88.6968 65.803 88.4813 65.886 88.2768Z" fill="#263238"/>
<path d="M56.0657 165.964L59.9882 219.201L61.6268 218.82L61.0151 167.086L56.0657 165.964Z" fill="#263238"/>
<path d="M39.4441 167.816L27.5306 219.14H29.6855L46.7392 167.816H39.4441Z" fill="#263238"/>
<path d="M70.9533 167.816L87.2046 219.14H88.9442L76.0318 167.816H70.9533Z" fill="#263238"/>
<path d="M73.1307 171.261L36.7112 195.06V196.362L74.1464 171.261H73.1307Z" fill="#263238"/>
<path d="M42.2274 171.261L81.6883 197.816V195.784L43.3834 170.1L42.2274 171.261Z" fill="#263238"/>
<path d="M34.0008 168.697L80.9251 167.85C81.3454 167.842 81.7594 167.746 82.1402 167.568C82.521 167.39 82.8602 167.134 83.1358 166.816C83.4114 166.499 83.6172 166.127 83.7401 165.725C83.8629 165.323 83.8999 164.9 83.8488 164.483C83.7639 163.744 83.407 163.064 82.8479 162.574C82.2887 162.085 81.5673 161.821 80.8241 161.834L33.232 162.597L34.0008 168.697Z" fill="#781596"/>
<g opacity="0.2">
<path d="M34.0008 168.697L80.9251 167.85C81.3454 167.842 81.7594 167.746 82.1402 167.568C82.521 167.39 82.8602 167.134 83.1358 166.816C83.4114 166.499 83.6172 166.127 83.7401 165.725C83.8629 165.323 83.8999 164.9 83.8488 164.483C83.7639 163.744 83.407 163.064 82.8479 162.574C82.2887 162.085 81.5673 161.821 80.8241 161.834L33.232 162.597L34.0008 168.697Z" fill="black"/>
</g>
<path d="M29.2197 132.423L33.9559 168.697L70.9533 167.816L70.8579 145.785C70.871 144.919 70.7017 144.06 70.3612 143.264C70.0207 142.468 69.5166 141.753 68.8815 141.164C68.2464 140.576 67.4946 140.127 66.675 139.848C65.8554 139.569 64.9862 139.466 64.124 139.545L35.9144 142.092L32.1995 103.647L28.4509 103.327C28.0594 103.299 27.6664 103.358 27.3007 103.5C26.9349 103.643 26.6056 103.865 26.3367 104.151C26.0679 104.437 25.8663 104.78 25.7466 105.154C25.627 105.528 25.5923 105.924 25.6451 106.313L29.2197 132.423Z" fill="#781596"/>
<path d="M69.4691 261.458H68.0131L62.1571 252.578V261.458H60.7011V250.29H62.1571L68.0131 259.154V250.29H69.4691V261.458ZM75.7751 261.602C74.9537 261.602 74.2071 261.416 73.5351 261.042C72.8737 260.669 72.3511 260.141 71.9671 259.458C71.5937 258.765 71.4071 257.965 71.4071 257.058C71.4071 256.162 71.5991 255.373 71.9831 254.69C72.3777 253.997 72.9111 253.469 73.5831 253.106C74.2551 252.733 75.0071 252.546 75.8391 252.546C76.6711 252.546 77.4231 252.733 78.0951 253.106C78.7671 253.469 79.2951 253.992 79.6791 254.674C80.0737 255.357 80.2711 256.152 80.2711 257.058C80.2711 257.965 80.0684 258.765 79.6631 259.458C79.2684 260.141 78.7297 260.669 78.0471 261.042C77.3644 261.416 76.6071 261.602 75.7751 261.602ZM75.7751 260.322C76.2977 260.322 76.7884 260.2 77.2471 259.954C77.7057 259.709 78.0737 259.341 78.3511 258.85C78.6391 258.36 78.7831 257.762 78.7831 257.058C78.7831 256.354 78.6444 255.757 78.3671 255.266C78.0897 254.776 77.7271 254.413 77.2791 254.178C76.8311 253.933 76.3457 253.81 75.8231 253.81C75.2897 253.81 74.7991 253.933 74.3511 254.178C73.9137 254.413 73.5617 254.776 73.2951 255.266C73.0284 255.757 72.8951 256.354 72.8951 257.058C72.8951 257.773 73.0231 258.376 73.2791 258.866C73.5457 259.357 73.8977 259.725 74.3351 259.97C74.7724 260.205 75.2524 260.322 75.7751 260.322ZM87.2031 251.266C86.9257 251.266 86.6911 251.17 86.4991 250.978C86.3071 250.786 86.2111 250.552 86.2111 250.274C86.2111 249.997 86.3071 249.762 86.4991 249.57C86.6911 249.378 86.9257 249.282 87.2031 249.282C87.4697 249.282 87.6937 249.378 87.8751 249.57C88.0671 249.762 88.1631 249.997 88.1631 250.274C88.1631 250.552 88.0671 250.786 87.8751 250.978C87.6937 251.17 87.4697 251.266 87.2031 251.266ZM87.9071 252.69V261.458H86.4511V252.69H87.9071ZM94.6606 252.53C95.7272 252.53 96.5912 252.856 97.2526 253.506C97.9139 254.146 98.2446 255.074 98.2446 256.29V261.458H96.8046V256.498C96.8046 255.624 96.5859 254.957 96.1486 254.498C95.7112 254.029 95.1139 253.794 94.3566 253.794C93.5886 253.794 92.9752 254.034 92.5166 254.514C92.0686 254.994 91.8446 255.693 91.8446 256.61V261.458H90.3886V252.69H91.8446V253.938C92.1326 253.49 92.5219 253.144 93.0126 252.898C93.5139 252.653 94.0632 252.53 94.6606 252.53ZM103.887 260.114L106.607 252.69H108.159L104.719 261.458H103.023L99.5829 252.69H101.151L103.887 260.114ZM110.344 251.266C110.066 251.266 109.832 251.17 109.64 250.978C109.448 250.786 109.352 250.552 109.352 250.274C109.352 249.997 109.448 249.762 109.64 249.57C109.832 249.378 110.066 249.282 110.344 249.282C110.61 249.282 110.834 249.378 111.016 249.57C111.208 249.762 111.304 249.997 111.304 250.274C111.304 250.552 111.208 250.786 111.016 250.978C110.834 251.17 110.61 251.266 110.344 251.266ZM111.048 252.69V261.458H109.592V252.69H111.048ZM115.305 253.89V259.058C115.305 259.485 115.396 259.789 115.577 259.97C115.759 260.141 116.073 260.226 116.521 260.226H117.593V261.458H116.281C115.471 261.458 114.863 261.272 114.457 260.898C114.052 260.525 113.849 259.912 113.849 259.058V253.89H112.713V252.69H113.849V250.482H115.305V252.69H117.593V253.89H115.305ZM127.357 256.738C127.357 257.016 127.341 257.309 127.309 257.618H120.301C120.355 258.482 120.648 259.16 121.181 259.65C121.725 260.13 122.381 260.37 123.149 260.37C123.779 260.37 124.301 260.226 124.717 259.938C125.144 259.64 125.443 259.245 125.613 258.754H127.181C126.947 259.597 126.477 260.285 125.773 260.818C125.069 261.341 124.195 261.602 123.149 261.602C122.317 261.602 121.571 261.416 120.909 261.042C120.259 260.669 119.747 260.141 119.373 259.458C119 258.765 118.813 257.965 118.813 257.058C118.813 256.152 118.995 255.357 119.357 254.674C119.72 253.992 120.227 253.469 120.877 253.106C121.539 252.733 122.296 252.546 123.149 252.546C123.981 252.546 124.717 252.728 125.357 253.09C125.997 253.453 126.488 253.954 126.829 254.594C127.181 255.224 127.357 255.938 127.357 256.738ZM125.853 256.434C125.853 255.88 125.731 255.405 125.485 255.01C125.24 254.605 124.904 254.301 124.477 254.098C124.061 253.885 123.597 253.778 123.085 253.778C122.349 253.778 121.72 254.013 121.197 254.482C120.685 254.952 120.392 255.602 120.317 256.434H125.853ZM136.649 261.602C135.977 261.602 135.374 261.49 134.841 261.266C134.307 261.032 133.886 260.712 133.577 260.306C133.267 259.89 133.097 259.416 133.065 258.882H134.569C134.611 259.32 134.814 259.677 135.177 259.954C135.55 260.232 136.035 260.37 136.633 260.37C137.187 260.37 137.625 260.248 137.945 260.002C138.265 259.757 138.425 259.448 138.425 259.074C138.425 258.69 138.254 258.408 137.913 258.226C137.571 258.034 137.043 257.848 136.329 257.666C135.678 257.496 135.145 257.325 134.729 257.154C134.323 256.973 133.971 256.712 133.673 256.37C133.385 256.018 133.241 255.56 133.241 254.994C133.241 254.546 133.374 254.136 133.641 253.762C133.907 253.389 134.286 253.096 134.777 252.882C135.267 252.658 135.827 252.546 136.457 252.546C137.427 252.546 138.211 252.792 138.809 253.282C139.406 253.773 139.726 254.445 139.769 255.298H138.313C138.281 254.84 138.094 254.472 137.753 254.194C137.422 253.917 136.974 253.778 136.409 253.778C135.886 253.778 135.47 253.89 135.161 254.114C134.851 254.338 134.697 254.632 134.697 254.994C134.697 255.282 134.787 255.522 134.969 255.714C135.161 255.896 135.395 256.045 135.673 256.162C135.961 256.269 136.355 256.392 136.857 256.53C137.486 256.701 137.998 256.872 138.393 257.042C138.787 257.202 139.123 257.448 139.401 257.778C139.689 258.109 139.838 258.541 139.849 259.074C139.849 259.554 139.715 259.986 139.449 260.37C139.182 260.754 138.803 261.058 138.313 261.282C137.833 261.496 137.278 261.602 136.649 261.602ZM149.904 256.738C149.904 257.016 149.888 257.309 149.856 257.618H142.848C142.902 258.482 143.195 259.16 143.728 259.65C144.272 260.13 144.928 260.37 145.696 260.37C146.326 260.37 146.848 260.226 147.264 259.938C147.691 259.64 147.99 259.245 148.16 258.754H149.728C149.494 259.597 149.024 260.285 148.32 260.818C147.616 261.341 146.742 261.602 145.696 261.602C144.864 261.602 144.118 261.416 143.456 261.042C142.806 260.669 142.294 260.141 141.92 259.458C141.547 258.765 141.36 257.965 141.36 257.058C141.36 256.152 141.542 255.357 141.904 254.674C142.267 253.992 142.774 253.469 143.424 253.106C144.086 252.733 144.843 252.546 145.696 252.546C146.528 252.546 147.264 252.728 147.904 253.09C148.544 253.453 149.035 253.954 149.376 254.594C149.728 255.224 149.904 255.938 149.904 256.738ZM148.4 256.434C148.4 255.88 148.278 255.405 148.032 255.01C147.787 254.605 147.451 254.301 147.024 254.098C146.608 253.885 146.144 253.778 145.632 253.778C144.896 253.778 144.267 254.013 143.744 254.482C143.232 254.952 142.939 255.602 142.864 256.434H148.4ZM156.098 252.53C157.165 252.53 158.029 252.856 158.69 253.506C159.351 254.146 159.682 255.074 159.682 256.29V261.458H158.242V256.498C158.242 255.624 158.023 254.957 157.586 254.498C157.149 254.029 156.551 253.794 155.794 253.794C155.026 253.794 154.413 254.034 153.954 254.514C153.506 254.994 153.282 255.693 153.282 256.61V261.458H151.826V252.69H153.282V253.938C153.57 253.49 153.959 253.144 154.45 252.898C154.951 252.653 155.501 252.53 156.098 252.53ZM163.836 253.89V259.058C163.836 259.485 163.927 259.789 164.108 259.97C164.29 260.141 164.604 260.226 165.052 260.226H166.124V261.458H164.812C164.002 261.458 163.394 261.272 162.988 260.898C162.583 260.525 162.38 259.912 162.38 259.058V253.89H161.244V252.69H162.38V250.482H163.836V252.69H166.124V253.89H163.836Z" fill="#1C1B1F"/>
</svg>
